<?xml version="1.0" standalone="no"?>
<!DOCTYPE svg PUBLIC "-//W3C//DTD SVG 20010904//EN"
 "http://www.w3.org/TR/2001/REC-SVG-20010904/DTD/svg10.dtd">
<svg version="1.0" xmlns="http://www.w3.org/2000/svg"
 width="1600.000000pt" height="1600.000000pt" viewBox="0 0 1600.000000 1600.000000"
 preserveAspectRatio="xMidYMid meet">
<metadata>
Created by potrace 1.14, written by Peter Selinger 2001-2017
</metadata>
<g transform="translate(0.000000,1600.000000) scale(0.100000,-0.100000)"
fill="#000000" stroke="none">
<path d="M6126 15853 c11 -215 11 -218 -4 -215 -10 2 -10 -3 2 -20 9 -12 16
-39 16 -60 0 -20 4 -39 9 -42 4 -3 11 -35 14 -72 4 -54 10 -71 33 -95 l27 -28
-64 -29 -64 -29 -3 31 c-1 17 -6 109 -10 204 l-7 173 -145 65 -145 66 -315 5
-315 5 -147 -133 -148 -133 0 -71 0 -70 -150 -134 -150 -133 0 -207 0 -206
-145 -129 -145 -128 0 -207 0 -206 -150 -133 -150 -134 0 -133 0 -133 -156
-139 -157 -138 -56 0 c-52 0 -83 -13 -403 -164 l-347 -165 -313 -278 c-172
-154 -321 -287 -331 -297 -16 -16 -21 -62 -41 -372 -29 -453 -20 -722 26 -764
7 -7 79 -67 160 -135 146 -120 148 -123 148 -162 0 -23 5 -69 12 -104 l11 -63
181 -149 c158 -129 202 -160 342 -235 l162 -87 688 0 689 0 169 90 169 90 171
0 171 0 94 50 c87 46 99 50 164 50 70 0 73 1 239 90 l169 90 59 -30 c48 -24
60 -35 60 -54 0 -19 33 -53 144 -150 154 -134 156 -137 156 -236 l0 -48 144
-123 144 -124 6 -125 c11 -205 -1 -180 151 -310 l135 -115 0 -51 c0 -27 4 -54
9 -60 5 -5 11 -21 13 -36 2 -21 36 -56 143 -148 l140 -120 58 0 c50 0 72 -7
139 -41 l79 -42 42 23 c74 41 80 47 62 54 -9 3 -28 6 -41 6 -14 0 -24 6 -24
14 0 16 40 29 54 17 12 -10 39 13 29 23 -4 3 -1 6 5 6 7 0 12 -6 12 -12 1 -8
6 -6 14 4 10 13 15 15 24 6 7 -7 12 -17 12 -23 0 -6 12 -12 26 -13 24 -2 26 1
22 28 -4 29 -4 30 39 30 27 0 43 4 43 13 1 38 60 113 60 75 0 -6 3 -8 7 -5 3
4 -4 18 -17 32 l-23 25 36 0 c20 0 37 5 37 10 0 6 8 10 18 10 17 0 122 -95
122 -111 0 -5 7 -9 15 -9 8 0 15 -5 15 -11 0 -5 -4 -7 -10 -4 -6 3 -7 -1 -4
-9 8 -20 20 -20 28 -1 3 8 10 15 16 15 6 0 9 -4 5 -9 -9 -15 12 -22 23 -8 9
11 -1 97 -22 196 -3 13 -1 32 5 42 8 15 6 17 -7 12 -14 -5 -15 -3 -5 15 14 26
39 28 56 5 9 -13 14 -13 20 -3 6 9 4 11 -6 5 -8 -5 -11 -4 -6 1 5 5 14 9 20 9
32 1 87 30 87 47 0 11 5 15 15 12 9 -4 15 0 15 7 0 8 9 -4 20 -26 18 -36 20
-30 4 10 -8 21 15 19 39 -3 11 -9 17 -11 13 -4 -4 6 -3 12 3 12 6 0 15 10 21
23 11 21 10 21 -4 3 -9 -11 -16 -15 -16 -10 0 20 45 51 90 62 41 10 46 10 61
-10 16 -21 16 -23 -5 -38 -11 -9 -43 -29 -69 -44 l-48 -28 36 -35 c29 -28 39
-33 50 -23 8 7 15 21 15 32 0 10 5 16 10 13 6 -4 23 7 40 23 16 16 31 27 34
25 2 -3 2 10 -1 29 -3 18 -8 35 -12 38 -10 6 -86 240 -84 257 0 7 -3 10 -8 7
-5 -3 -9 -1 -9 4 0 21 16 20 47 -4 19 -14 36 -24 39 -21 10 10 -19 62 -63 113
-36 43 -50 53 -67 48 -12 -3 -71 -35 -133 -70 -62 -35 -115 -64 -118 -64 -3 0
-5 32 -5 72 0 63 -2 70 -14 53 -12 -17 -14 -17 -23 -1 -10 17 -15 18 -90 6 -2
0 -2 -5 0 -11 1 -6 -4 -14 -12 -17 -8 -2 -11 0 -7 6 4 6 -1 8 -13 5 -12 -3
-17 -11 -14 -23 4 -15 1 -18 -16 -15 -12 2 -27 7 -34 12 -14 9 -117 11 -111 2
2 -3 -10 -6 -26 -6 -16 0 -27 3 -25 7 2 3 -4 6 -13 7 -57 4 -79 16 -147 82
l-55 54 0 93 0 94 -49 0 -49 0 -15 68 c-25 110 -39 212 -33 228 3 8 2 12 -4 9
-6 -4 -10 8 -10 27 0 18 -3 44 -7 57 -5 22 -9 23 -55 17 -26 -4 -54 -9 -62
-12 -17 -7 -29 127 -12 138 8 5 7 8 -1 8 -9 0 -13 38 -15 143 l-3 142 -87 3
-88 3 0 34 c0 18 5 35 11 37 9 3 13 19 18 80 1 4 10 16 22 27 12 11 18 24 14
30 -8 15 8 14 22 0 9 -9 10 -6 6 11 -4 17 -2 21 8 18 7 -2 30 13 50 34 36 38
36 38 46 16 l11 -23 10 25 c9 24 10 24 17 -13 4 -20 11 -39 15 -42 9 -6 25
-83 21 -102 -4 -25 38 -13 53 15 11 20 15 22 16 9 0 -10 5 -15 10 -12 6 3 10
1 10 -4 0 -6 5 -11 10 -11 6 0 10 16 10 35 0 66 46 7 65 -83 4 -18 10 -30 14
-27 5 2 6 -7 3 -20 -2 -15 0 -25 7 -25 7 0 9 -4 6 -10 -4 -6 7 -10 24 -10 17
0 31 -5 31 -12 0 -6 3 -8 7 -4 8 7 5 91 -3 119 -5 16 -3 17 16 7 41 -22 43 -3
4 41 -62 69 -95 117 -97 142 -1 12 -12 37 -24 56 -25 37 -31 67 -10 55 6 -4 9
-4 5 1 -5 5 2 13 15 19 12 6 24 23 26 36 3 25 3 25 -18 6 -11 -10 -18 -23 -14
-29 3 -5 1 -7 -4 -4 -6 4 -23 -11 -38 -33 l-28 -41 -24 22 -23 22 0 -34 c0
-26 -3 -30 -10 -19 -6 10 -10 11 -10 3 0 -7 -4 -13 -10 -13 -5 0 -10 18 -10
39 0 29 -5 41 -17 44 -15 4 -15 5 2 6 15 1 17 4 7 10 -7 4 -14 15 -16 24 -1 9
-17 36 -34 60 -35 45 -64 95 -82 140 -7 15 -17 27 -24 27 -20 0 -106 105 -106
130 0 5 21 10 48 10 26 0 57 3 69 6 20 6 17 10 -35 57 -31 29 -94 88 -140 132
-81 78 -83 81 -82 125 1 25 1 48 1 52 -1 4 -75 -31 -166 -78 l-165 -86 0 205
c0 112 -3 257 -6 323 l-6 119 157 80 c86 44 160 85 164 90 10 12 -26 499 -37
503 -4 1 -25 13 -47 25 -28 16 -40 29 -39 45 1 25 -9 28 -28 9 -10 -12 -22
-10 -68 11 -30 14 -59 31 -63 39 -5 7 -12 11 -16 8 -5 -2 -11 5 -14 17 -5 17
-9 19 -20 10 -8 -7 -17 -9 -20 -5 -4 3 -35 9 -69 12 -47 4 -63 10 -63 21 0 8
7 13 15 12 8 -2 36 -5 63 -6 26 -2 50 -6 54 -9 10 -10 34 14 26 27 -4 6 1 5
10 -3 21 -17 30 -9 33 29 1 15 5 33 8 39 9 14 -15 50 -30 44 -14 -5 -38 33
-25 41 4 3 16 -3 26 -14 10 -11 22 -17 28 -13 6 4 7 1 2 -8 -7 -12 -6 -12 6
-1 12 11 11 15 -5 27 -10 8 -22 13 -25 11 -3 -2 -12 2 -19 10 -11 12 -10 15 2
20 13 5 12 10 -6 35 -20 26 -48 43 -33 19 3 -5 1 -10 -4 -10 -14 0 -14 6 -1
30 7 13 7 21 -2 26 -7 5 -8 2 -3 -7 6 -11 5 -12 -5 -2 -18 17 -7 26 30 25 16
0 30 4 30 11 0 8 3 8 12 -1 7 -7 23 -12 35 -12 26 0 27 -1 90 -56 30 -26 42
-42 39 -58 -2 -11 -1 -15 1 -8 6 17 23 15 23 -3 0 -8 -9 -19 -20 -25 -11 -6
-20 -20 -19 -33 0 -21 1 -21 9 -2 10 23 10 24 17 -37 3 -34 1 -48 -7 -48 -7 0
-10 -7 -6 -15 4 -11 -3 -19 -22 -27 -26 -11 -26 -12 -4 -16 12 -2 20 -7 18
-11 -10 -15 10 -29 36 -24 15 3 25 10 22 15 -4 7 2 7 17 2 37 -12 78 -13 85
-2 7 11 -25 50 -36 43 -4 -2 -12 7 -18 20 -9 20 -9 23 5 18 12 -5 14 -1 8 16
-6 20 -4 22 14 16 13 -4 21 -2 21 5 0 17 -29 23 -45 10 -10 -9 -15 -9 -15 -1
0 6 4 11 9 11 10 0 9 26 -2 36 -3 4 -14 1 -23 -7 -16 -13 -16 -12 -6 7 9 17 9
24 -3 34 -11 9 -15 9 -15 1 0 -6 -4 -11 -10 -11 -6 0 -5 10 2 25 10 23 12 23
25 7 13 -15 14 -14 8 11 -4 20 -2 27 10 27 9 0 13 -4 10 -10 -3 -6 1 -7 9 -4
12 5 13 11 5 25 -5 10 -13 19 -17 19 -4 0 -8 10 -10 23 -1 16 4 23 18 23 10 0
16 -4 14 -8 -3 -4 -1 -8 5 -8 5 0 11 6 14 13 3 9 12 8 36 -5 17 -9 31 -16 31
-14 0 2 -5 17 -11 35 -10 29 -29 38 -64 31 -5 -1 -1 8 9 19 11 12 16 24 13 28
-14 13 15 33 33 23 16 -9 18 -7 14 17 -6 33 -5 32 -35 35 -20 3 -24 -1 -24
-24 1 -21 -2 -24 -12 -16 -7 6 -10 14 -7 19 3 5 0 8 -8 7 -7 -2 -14 6 -14 17
-1 11 -2 29 -3 40 -1 14 -4 16 -10 7 -6 -10 -11 -10 -21 3 -13 16 -15 16 -26
0 -8 -10 -14 -12 -19 -6 -3 6 -2 11 4 11 8 0 8 20 1 40 -1 3 -2 8 -2 12 1 3
-5 9 -14 12 -12 5 -14 -2 -8 -44 7 -53 -3 -64 -33 -35 -8 8 -19 12 -25 9 -7
-5 -8 -2 -3 6 5 8 1 18 -10 26 -17 13 -17 15 -1 59 17 44 46 62 46 28 0 -15 1
-15 13 2 13 17 14 17 19 -3 7 -27 48 -50 48 -27 0 9 4 14 9 10 14 -8 22 10 15
30 -6 13 -9 14 -16 3 -6 -8 -7 -5 -3 12 4 20 -2 30 -34 54 -21 15 -64 54 -95
85 l-56 57 2 234 3 235 60 -57 61 -57 167 -2 168 -2 32 29 c18 16 41 38 52 50
11 12 63 59 115 104 52 45 102 89 110 97 8 7 -52 -18 -133 -57 -85 -41 -156
-68 -165 -65 -10 3 -83 70 -164 148 l-147 142 -4 221 -3 221 155 71 156 72 -3
52 c-1 29 -5 72 -8 96 l-5 42 -216 0 -216 0 6 -136 c5 -104 3 -135 -6 -131 -7
3 -130 58 -275 123 -230 103 -261 120 -246 131 15 11 11 13 -30 13 l-47 0 7
-147z m619 -1785 c-1 -16 -5 -31 -10 -36 -4 -4 -4 4 0 18 7 22 6 23 -9 11 -9
-8 -16 -9 -16 -3 0 6 5 14 12 18 8 5 6 10 -8 15 -16 6 -15 7 7 6 21 -1 25 -6
24 -29z m128 -23 c-3 -9 -8 -14 -10 -11 -3 3 -2 9 2 15 9 16 15 13 8 -4z m-53
-14 c0 -5 -16 -28 -35 -51 -19 -23 -35 -50 -35 -60 0 -10 -9 -19 -23 -22 -19
-4 -23 0 -22 19 0 13 6 28 14 32 8 5 11 16 8 25 -4 10 -2 16 6 15 34 -4 46 2
42 22 -3 17 -2 19 10 9 12 -10 16 -9 21 4 7 18 14 21 14 7z m-129 -18 c13 -16
12 -17 -3 -4 -17 13 -22 21 -14 21 2 0 10 -8 17 -17z m154 -12 c3 -5 2 -12 -3
-15 -5 -3 -9 1 -9 9 0 17 3 19 12 6z m55 -21 c0 -5 -2 -10 -4 -10 -3 0 -8 5
-11 10 -3 6 -1 10 4 10 6 0 11 -4 11 -10z m-75 -20 c3 -6 -1 -7 -9 -4 -18 7
-21 14 -7 14 6 0 13 -4 16 -10z m-160 -34 c8 -7 11 -16 8 -19 -5 -6 -33 17
-33 27 0 10 11 7 25 -8z m125 -32 c0 -2 -7 -4 -15 -4 -8 0 -15 4 -15 10 0 5 7
7 15 4 8 -4 15 -8 15 -10z m-267 -50 c-7 -19 -10 -18 -16 5 -3 13 -1 18 9 14
7 -2 10 -11 7 -19z m57 12 c0 -17 -32 -15 -38 2 -2 7 6 12 17 12 12 0 21 -6
21 -14z m232 7 c-6 -2 -9 -10 -5 -16 5 -8 2 -8 -9 0 -8 7 -19 9 -23 5 -5 -4
-5 -1 -1 6 4 6 17 12 29 11 12 0 16 -3 9 -6z m-277 -43 c-3 -5 -12 -10 -18
-10 -7 0 -6 4 3 10 19 12 23 12 15 0z m352 -22 c-3 -8 -6 -5 -6 6 -1 11 2 17
5 13 3 -3 4 -12 1 -19z m-262 -176 c-3 -3 -11 0 -18 7 -9 10 -8 11 6 5 10 -3
15 -9 12 -12z m-289 -64 c-3 -13 -3 -17 0 -10 3 6 18 12 32 11 l27 -1 -25 -9
c-17 -6 -5 -7 40 -4 59 3 61 3 25 -6 -30 -8 -98 -7 -122 0 -6 3 11 41 19 41 5
0 7 -10 4 -22z m-672 -43 c-19 -14 -11 -20 24 -16 17 3 15 -28 -3 -36 -14 -5
-14 -7 0 -23 13 -15 14 -18 2 -23 -8 -3 -20 0 -26 6 -6 6 -14 7 -18 3 -4 -4
-2 -10 5 -15 8 -5 0 -13 -23 -24 -39 -19 -85 -23 -85 -7 0 6 4 10 9 10 5 0 7
8 4 18 -3 12 7 29 25 48 40 39 85 73 96 74 6 0 1 -7 -10 -15z m126 -35 c0 -5
-18 -19 -41 -30 l-40 -21 17 26 c11 18 24 25 36 22 10 -3 18 -1 18 4 0 5 2 9
5 9 3 0 5 -4 5 -10z m716 -1622 l141 -125 -161 -85 c-89 -47 -162 -85 -162
-84 -1 0 -4 107 -8 236 l-6 234 27 -25 c16 -14 91 -82 169 -151z m594 -68 c0
-5 -5 -10 -11 -10 -5 0 -7 5 -4 10 3 6 8 10 11 10 2 0 4 -4 4 -10z m-240 -152
c17 2 27 9 23 15 -3 6 -1 7 5 3 15 -9 16 -56 2 -56 -5 0 -10 4 -10 9 0 5 -9
11 -20 14 -23 6 -24 0 -10 -38 7 -19 7 -24 -1 -19 -12 7 -4 -27 12 -56 7 -13
8 -13 9 0 1 8 5 5 11 -8 5 -13 7 -28 4 -33 -3 -5 -1 -18 5 -29 10 -19 8 -20
-89 -20 l-99 0 -7 62 -7 61 48 43 c27 24 57 46 67 49 9 4 18 12 18 18 1 7 3 5
6 -4 3 -11 12 -14 33 -11z m-1407 -242 c81 -71 146 -133 145 -138 -2 -5 -76
-47 -166 -93 l-162 -85 0 236 c0 223 1 236 17 223 10 -8 84 -72 166 -143z
m1291 -1426 c-6 -5 -24 21 -24 34 0 6 6 1 14 -10 8 -10 12 -21 10 -24z m1836
-559 c0 -5 -7 -11 -14 -14 -10 -4 -13 -1 -9 9 6 15 23 19 23 5z"/>
<path d="M7603 15592 l-122 -57 -1 -193 c0 -152 3 -192 13 -186 6 4 65 54 130
112 l117 103 0 140 c0 76 -3 139 -7 138 -5 0 -63 -26 -130 -57z"/>
<path d="M14405 15505 c-111 -60 -125 -65 -183 -65 -58 0 -72 -5 -194 -70
l-132 -70 -156 0 -156 0 -124 -65 c-112 -58 -131 -65 -184 -65 -56 0 -71 -6
-330 -142 -270 -141 -272 -142 -441 -284 l-170 -142 -60 -136 -60 -136 -85
-71 c-70 -59 -90 -82 -112 -131 -26 -57 -28 -69 -28 -202 l0 -141 -107 -88
-107 -89 -14 41 -14 41 -51 -1 c-29 0 -81 -8 -117 -17 -62 -16 -66 -19 -90
-64 -14 -27 -30 -48 -36 -48 -20 0 -54 46 -54 73 0 22 -5 27 -23 27 -36 0
-335 -217 -374 -271 -18 -24 -39 -52 -48 -62 -22 -25 -35 -63 -35 -103 0 -19
-5 -34 -10 -34 -7 0 -7 -6 -1 -19 6 -10 7 -21 4 -25 -3 -3 -2 -6 4 -6 6 0 11
-6 10 -12 -1 -33 4 -49 13 -43 13 8 13 -6 0 -39 -8 -21 -6 -27 11 -36 17 -10
18 -13 4 -26 -19 -20 -19 -28 1 -20 9 4 13 2 8 -5 -3 -6 -21 -9 -38 -7 -29 3
-32 1 -31 -24 0 -24 2 -26 11 -13 10 13 13 10 18 -17 7 -38 -1 -114 -15 -139
-11 -22 -12 -39 0 -39 4 0 14 20 21 45 12 43 30 70 30 45 0 -6 5 -8 10 -5 6 3
10 -1 10 -10 0 -8 -7 -18 -16 -22 -8 -3 -24 -25 -36 -49 -22 -49 -45 -71 -36
-36 4 12 4 22 1 22 -15 0 -72 -42 -78 -57 -5 -14 -8 -15 -14 -4 -7 11 -14 8
-32 -13 -24 -28 -62 -39 -39 -11 10 12 10 15 -3 15 -9 0 -21 -8 -26 -17 -9
-15 -11 -12 -11 17 -1 34 -2 33 -30 -28 -16 -35 -61 -110 -99 -167 -38 -57
-67 -106 -64 -109 4 -3 2 -6 -4 -6 -19 0 -35 -54 -24 -83 6 -15 15 -27 20 -27
13 0 32 26 24 33 -3 4 -2 7 4 7 15 0 23 -26 13 -36 -8 -8 225 -201 239 -197 3
0 14 -3 23 -8 13 -7 22 -4 35 11 10 12 34 38 53 57 l35 37 3 -46 c3 -39 -1
-50 -28 -79 -60 -67 -68 -78 -79 -111 -8 -25 -8 -43 0 -67 6 -18 9 -50 6 -72
-6 -44 4 -50 27 -17 9 12 16 18 16 13 -1 -26 -25 -39 -106 -56 -194 -42 -340
-146 -452 -325 -128 -203 -148 -487 -51 -719 17 -42 30 -77 28 -79 -2 -1 -29
-13 -59 -25 -155 -65 -260 -189 -380 -452 -38 -83 -85 -174 -105 -203 l-36
-53 17 -41 c9 -23 20 -42 24 -42 15 0 20 -31 9 -53 -9 -16 -9 -22 0 -25 6 -2
11 -19 11 -37 0 -18 7 -45 15 -61 12 -25 12 -30 0 -44 -8 -9 -16 -41 -17 -75
l-3 -60 50 -16 c43 -14 56 -14 88 -3 20 7 37 9 37 4 0 -5 -8 -11 -17 -13 -15
-4 -14 -5 3 -6 11 0 24 -5 30 -11 5 -5 22 -11 37 -12 15 -1 27 -5 27 -9 0 -4
8 -6 18 -5 9 0 16 -5 14 -12 -1 -6 2 -11 7 -10 8 3 61 -43 89 -76 6 -8 18 -13
26 -10 8 3 31 -22 62 -70 26 -42 52 -76 57 -76 4 0 5 5 2 10 -4 7 18 8 66 4
60 -6 71 -5 64 7 -5 8 1 6 13 -5 23 -20 19 -40 -12 -65 -9 -8 -13 -17 -11 -22
3 -4 -16 -2 -42 6 -117 36 -316 86 -360 90 -90 10 -188 11 -205 3 -9 -4 -30
-3 -47 3 -22 8 -41 8 -68 -1 -114 -33 -143 -45 -143 -58 0 -7 -5 -10 -10 -7
-6 4 -32 2 -58 -5 -51 -12 -68 -12 -65 -1 1 4 -7 7 -17 8 -13 1 -17 -3 -14
-15 5 -15 4 -15 -6 1 -6 9 -16 14 -22 11 -7 -5 -9 -1 -5 9 8 22 -25 41 -42 24
-10 -9 -11 -8 -6 6 4 10 2 17 -4 17 -6 0 -11 11 -11 25 0 18 -5 25 -20 25 -26
0 -42 39 -25 57 14 13 8 63 -7 63 -5 0 -6 5 -3 10 3 6 -1 10 -9 10 -12 0 -16
10 -16 34 0 19 4 37 9 40 5 3 11 15 14 26 4 17 3 19 -9 9 -11 -9 -14 -8 -14 5
0 25 -224 -149 -306 -237 -197 -211 -282 -462 -228 -670 66 -256 268 -382 848
-526 109 -28 203 -54 209 -60 16 -16 -75 -65 -228 -126 -168 -66 -281 -133
-356 -211 -107 -113 -149 -219 -180 -454 -11 -85 -31 -216 -45 -290 -51 -286
-53 -363 -14 -668 22 -168 24 -206 12 -198 -5 3 -24 8 -43 11 -74 13 -125 29
-135 43 -6 9 -20 13 -32 10 -15 -4 -19 -2 -15 9 5 12 1 14 -15 9 -11 -4 -23
-2 -27 4 -4 6 -15 8 -25 5 -11 -3 -20 0 -24 10 -7 18 -32 20 -39 3 -3 -8 -6
-6 -6 5 -1 20 -40 24 -59 5 -6 -6 -31 -11 -54 -10 -35 1 -39 -1 -20 -8 37 -15
25 -20 -38 -15 -51 4 -62 2 -79 -16 -14 -15 -26 -19 -43 -15 -23 7 -23 7 2 -9
l25 -16 -35 6 c-92 16 -160 39 -231 77 -68 37 -76 45 -67 61 7 14 5 23 -6 36
-9 10 -13 21 -9 26 5 4 3 5 -4 1 -6 -3 -18 3 -26 14 -7 11 -45 43 -83 72 -38
28 -72 56 -76 62 -4 6 -8 7 -8 2 0 -20 -120 87 -120 108 0 4 30 40 68 80 37
39 81 87 97 107 17 20 -12 -7 -62 -60 -51 -52 -93 -91 -93 -87 0 5 -9 1 -20
-9 -11 -10 -20 -14 -20 -10 0 5 -5 4 -12 -3 -9 -9 -14 -8 -22 3 -9 12 -171
115 -181 115 -1 0 -6 -16 -9 -36 -4 -19 -10 -34 -14 -32 -4 2 -59 29 -122 60
-63 32 -168 79 -232 106 l-117 48 21 22 c12 12 20 23 17 26 -2 2 -62 28 -134
59 -71 30 -208 94 -303 141 -94 47 -174 86 -177 86 -3 0 -18 6 -34 14 -27 14
-28 18 -34 110 -6 93 -49 256 -68 256 -5 0 1 -21 12 -47 11 -25 18 -52 15 -59
-3 -7 0 -14 6 -16 6 -2 12 -29 12 -60 1 -31 4 -54 9 -51 4 2 7 -21 7 -52 0
-37 -4 -54 -11 -50 -6 4 -8 13 -6 19 3 9 -8 6 -31 -6 -51 -26 -59 -23 -54 17
5 39 4 39 -34 25 -31 -12 -44 -1 -44 37 0 20 -1 21 -46 7 l-46 -14 7 39 6 39
-38 -9 c-21 -5 -41 -9 -45 -9 -3 0 -4 17 -1 38 5 36 2 41 -36 71 -28 22 -39
37 -33 45 5 6 14 26 21 45 10 32 9 37 -15 62 l-27 28 34 16 c47 23 93 83 77
102 -6 8 -12 26 -14 41 -1 15 -6 37 -9 50 -6 17 -3 22 11 22 18 1 18 1 1 14
-17 13 -17 16 3 59 12 25 30 53 40 62 11 10 16 24 13 33 -4 9 -2 13 4 9 6 -4
17 0 24 9 7 9 24 20 38 26 21 7 23 11 11 18 -11 7 -11 10 -2 10 7 0 12 6 11
13 -4 32 1 36 33 26 37 -10 64 -12 56 -3 -6 6 -31 12 -58 14 -13 1 -13 2 0 13
8 7 14 22 12 33 -5 32 45 86 72 79 16 -5 18 -4 6 4 -12 8 -11 14 10 35 l23 26
-27 0 c-41 0 -142 -28 -197 -54 -126 -61 -217 -136 -405 -333 -163 -171 -220
-245 -260 -337 -16 -37 -36 -69 -46 -72 -19 -6 -25 -30 -9 -36 5 -1 6 -28 3
-58 l-5 -55 -27 58 -26 58 -49 -40 -50 -41 -99 0 -100 0 -139 -81 c-119 -68
-225 -146 -384 -280 l-32 -27 -2 -138 c-2 -77 -2 -168 -1 -204 0 -36 0 -99 -1
-140 -1 -41 0 -141 1 -221 l2 -147 209 -163 c116 -90 210 -167 210 -171 1 -5
-204 -8 -455 -8 l-456 0 -123 -74 c-68 -41 -125 -70 -127 -64 -4 10 -38 -6
-116 -54 -22 -14 -32 -16 -30 -7 2 9 -7 13 -24 13 -18 -1 -25 3 -21 12 11 29
-52 -7 -112 -63 -60 -56 -99 -85 -119 -90 -6 -1 -22 -5 -35 -9 -18 -5 -22 -4
-16 6 5 9 4 11 -4 6 -6 -4 -9 -12 -6 -17 4 -5 0 -9 -7 -10 -32 -2 -60 -10 -82
-24 -12 -8 -26 -12 -31 -8 -4 5 -5 3 -2 -4 8 -13 -58 -58 -72 -49 -5 3 -12 -1
-15 -10 -9 -22 -8 -24 10 -24 13 0 11 -5 -7 -25 -13 -13 -30 -25 -36 -25 -7 0
-12 -6 -10 -12 1 -7 -4 -12 -11 -10 -8 1 -11 -2 -8 -7 4 -5 -7 -19 -24 -31
l-30 -21 -1 23 c-1 19 -3 18 -9 -7 -5 -20 -8 -23 -9 -10 -1 13 -10 0 -26 -33
-20 -43 -29 -53 -47 -52 -13 1 -32 1 -43 0 l-20 -1 20 -9 c13 -6 15 -9 5 -9
-8 -1 -30 8 -49 20 -22 13 -44 19 -60 16 -15 -3 -35 1 -45 9 -11 8 -32 14 -47
14 -31 0 -38 12 -35 62 1 20 -2 34 -6 32 -5 -3 -8 0 -8 6 0 6 -5 8 -11 4 -6
-3 -15 0 -20 7 -7 11 -9 10 -9 -4 0 -13 -4 -15 -18 -8 -50 26 -80 35 -108 32
-18 -1 -35 2 -39 8 -3 6 -20 11 -37 11 -21 0 -31 6 -35 20 -3 11 -9 18 -13 15
-5 -3 -6 4 -3 14 6 24 -50 178 -88 243 -33 55 -35 70 -15 88 8 6 12 18 9 26
-3 7 2 17 11 20 9 3 14 10 11 15 -9 13 39 39 68 37 14 -1 25 -5 25 -8 -1 -3 2
-13 7 -23 6 -15 10 -16 17 -5 7 9 8 4 4 -14 -4 -16 -1 -30 6 -35 19 -11 68
-10 68 2 0 5 5 3 11 -5 8 -12 9 -10 4 8 -5 16 -1 28 12 38 10 9 12 12 4 8 -7
-3 -17 0 -22 7 -6 10 -9 11 -9 2 0 -7 -7 -13 -15 -13 -12 0 -13 4 -6 19 8 15
7 18 -6 17 -8 0 -17 8 -19 19 -4 22 21 46 41 39 14 -6 41 52 36 80 -2 14 1 17
15 12 13 -5 15 -4 6 7 -14 17 -6 28 16 20 11 -5 14 -2 9 10 -4 11 1 17 16 21
12 3 -108 3 -268 0 l-290 -4 -131 -75 -132 -75 -258 0 -257 0 -54 -30 -53 -30
-194 0 c-214 0 -206 3 -206 -66 0 -27 -4 -34 -20 -34 -20 0 -20 -6 -19 -392 0
-216 6 -472 13 -568 11 -165 14 -177 41 -218 l28 -42 34 20 c31 18 52 20 240
20 l206 0 136 79 136 79 131 6 131 5 126 -79 126 -80 262 0 262 0 118 -88 118
-87 3 -69 3 -70 62 -48 c63 -50 113 -70 113 -45 0 7 -6 19 -12 26 -11 11 -11
14 0 18 17 6 15 23 -3 23 -8 0 -15 5 -15 11 0 6 7 9 15 5 13 -5 14 -2 4 17 -7
12 -17 25 -23 29 -7 5 -4 12 9 22 17 13 17 15 4 16 -9 0 -21 6 -27 13 -8 10
-5 13 16 15 14 1 31 7 37 13 6 6 6 10 0 9 -5 -2 -21 -1 -35 0 -24 2 -24 2 5
12 30 11 45 25 45 43 0 6 -4 4 -9 -4 -6 -10 -14 -11 -26 -3 -17 9 -16 11 6 23
l24 13 -25 7 c-24 7 -24 7 -2 8 12 1 22 5 22 10 0 5 -8 7 -19 4 -11 -3 -21 2
-25 12 -9 24 3 38 20 24 9 -7 14 -8 14 -1 0 5 9 8 20 5 11 -3 20 -1 20 5 0 5
8 9 17 8 14 -1 16 8 14 54 -3 60 -8 73 -22 65 -5 -4 -9 0 -9 7 -1 9 -4 8 -10
-3 -6 -11 -18 -15 -35 -11 -14 2 -25 1 -24 -4 5 -21 -15 -44 -37 -44 -19 0
-24 5 -24 25 0 16 -6 25 -15 25 -22 0 -18 42 15 145 21 65 29 82 30 60 l2 -30
10 29 c8 21 7 30 -1 35 -9 6 -9 15 -1 35 5 15 14 24 20 21 6 -4 10 7 10 25 0
17 4 29 10 25 5 -3 13 9 18 27 5 18 14 32 21 31 6 -2 11 2 11 7 0 6 -6 10 -12
10 -7 0 -5 5 5 11 9 5 22 7 29 3 8 -5 9 -2 4 11 -5 15 -4 16 9 5 11 -9 15 -9
15 -1 0 7 5 9 10 6 6 -3 10 -1 10 5 0 6 5 8 10 5 6 -3 10 -2 10 3 0 12 49 34
61 27 5 -4 9 -1 9 5 0 6 5 8 10 5 6 -3 10 -1 10 6 0 7 3 9 7 6 3 -4 11 0 18 9
10 15 13 15 28 -1 9 -9 17 -12 17 -6 0 6 3 10 8 10 19 -3 33 2 27 11 -3 6 1
10 9 10 33 0 56 33 56 80 l0 45 51 1 c31 1 54 6 59 14 10 16 98 14 118 -2 8
-7 12 -7 12 0 0 6 25 2 63 -9 34 -10 65 -19 69 -19 4 0 2 15 -3 32 -5 18 -9
34 -9 35 0 2 41 3 91 3 85 0 91 1 86 19 -6 23 19 37 27 15 3 -8 16 -14 28 -15
22 0 22 -1 3 -9 -15 -7 -9 -9 25 -9 49 0 80 16 80 43 0 9 7 16 15 16 8 0 15
-8 15 -17 0 -15 -2 -16 -10 -3 -8 13 -10 12 -10 -2 0 -10 5 -18 11 -18 5 0 7
-5 4 -10 -4 -6 6 -10 22 -10 15 0 23 -4 17 -8 -15 -10 1 -52 20 -52 8 0 22 -3
32 -7 12 -4 15 -3 10 5 -5 8 -2 10 9 6 11 -5 14 -2 9 10 -3 9 -10 14 -14 11
-4 -2 -15 4 -24 14 -17 19 -17 20 6 23 13 2 23 9 23 17 0 8 7 16 15 18 12 4
12 3 2 -5 -11 -7 -11 -12 2 -25 9 -8 16 -23 16 -32 0 -11 5 -15 15 -11 8 3 15
1 15 -4 0 -5 9 -12 20 -15 11 -3 20 -13 20 -21 0 -17 -12 -18 -28 -2 -7 7 -12
8 -12 3 0 -6 -4 -4 -8 3 -9 14 -26 1 -75 -57 -15 -19 -31 -31 -34 -27 -4 3 9
22 27 41 43 44 34 56 -11 16 -18 -17 -40 -31 -49 -31 -26 -1 -45 -24 -44 -55
0 -16 -3 -35 -9 -42 -7 -9 -1 -10 25 -3 43 13 45 13 45 -5 0 -8 -6 -15 -14
-15 -7 0 -13 -11 -13 -25 0 -14 -4 -25 -10 -25 -5 0 -10 -7 -10 -15 0 -8 -3
-15 -7 -15 -5 0 -9 -19 -10 -43 -1 -33 0 -37 7 -20 6 14 15 21 24 17 8 -3 26
2 39 13 22 16 23 20 10 39 -19 29 1 41 21 13 17 -25 36 -18 29 11 -6 23 -36
43 -48 32 -5 -4 -4 0 0 8 11 18 14 50 5 50 -17 0 -4 27 18 38 22 10 24 9 18
-12 -5 -19 0 -25 27 -34 17 -5 24 -10 15 -11 -10 -1 -18 -6 -18 -11 0 -12 51
12 74 35 9 9 16 12 16 6 0 -6 5 -11 11 -11 7 0 9 10 7 24 -4 20 -1 24 15 20
11 -2 17 0 13 3 -3 4 1 18 11 32 13 21 14 24 1 13 -13 -11 -15 -9 -16 13 0 17
4 23 12 17 18 -14 48 -23 41 -12 -3 6 1 10 9 10 9 0 16 4 16 9 0 17 -20 23
-35 11 -8 -7 -20 -8 -29 -3 -19 11 -21 24 -4 34 10 7 10 9 1 9 -21 0 -15 38 7
45 12 4 56 31 99 61 44 30 84 54 90 54 6 0 11 4 11 9 0 12 57 25 98 22 30 -2
33 0 30 21 -2 15 2 23 12 23 9 0 14 -7 12 -18 -3 -17 -1 -17 35 1 21 10 49 16
63 14 l25 -4 -29 -12 c-28 -11 -28 -12 15 -11 24 1 53 6 64 13 21 12 17 14
-29 16 -20 1 -36 26 -16 26 6 0 8 5 4 12 -4 7 -3 8 4 4 6 -4 8 -14 5 -23 -4
-11 -3 -14 6 -9 6 4 9 16 6 27 -4 11 -2 19 5 19 6 0 4 10 -5 24 -13 19 -13 25
-3 29 10 4 10 7 -1 15 -11 8 -11 10 0 14 25 8 82 -10 123 -40 l41 -29 65 35
66 36 126 -99 c70 -54 125 -102 123 -105 -3 -4 -47 -33 -99 -65 -95 -57 -117
-79 -91 -89 8 -3 13 -14 12 -25 0 -11 -5 -17 -9 -15 -4 3 -8 -3 -9 -13 -1 -10
-6 1 -12 24 -18 64 -34 41 -45 -62 -11 -99 -20 -124 -68 -202 -45 -71 -106
-106 -190 -108 -59 -2 -66 -4 -103 -41 -58 -57 -79 -73 -85 -66 -3 3 -6 0 -6
-6 0 -10 37 -9 78 4 6 2 12 -5 12 -16 0 -15 -5 -18 -26 -14 -15 3 -23 1 -20
-5 4 -5 -2 -12 -13 -16 -11 -3 -22 -13 -25 -21 -4 -11 -10 -12 -24 -5 -14 8
-22 5 -35 -10 -10 -11 -12 -19 -6 -19 8 0 8 -4 0 -14 -9 -10 -3 -21 24 -50 19
-21 35 -39 35 -41 0 -1 -47 -31 -105 -66 -58 -35 -105 -68 -105 -73 0 -5 9
-24 21 -42 13 -21 17 -39 12 -48 -4 -8 -114 -113 -243 -234 -188 -177 -239
-220 -260 -219 -16 1 -24 -3 -22 -11 1 -8 -7 -16 -18 -19 -11 -3 -20 -9 -20
-13 0 -4 -18 -7 -40 -6 -22 0 -40 5 -40 11 0 5 -9 -5 -20 -23 -22 -36 -40 -35
-40 2 0 32 -20 86 -31 86 -6 0 -6 -8 0 -19 8 -14 7 -20 -4 -25 -8 -3 -12 -12
-9 -21 3 -8 2 -15 -4 -15 -5 0 -12 -14 -16 -31 -3 -17 -10 -28 -16 -24 -5 3
-10 0 -10 -7 -1 -8 -7 -5 -17 7 -13 16 -15 17 -10 3 4 -11 1 -18 -6 -19 -7 -1
-1 -4 13 -8 24 -7 23 -9 -39 -70 -36 -35 -70 -60 -78 -57 -8 4 -13 -2 -13 -17
-1 -26 -33 -51 -77 -60 -23 -5 -33 -3 -34 6 0 6 -5 2 -11 -10 -6 -12 -18 -25
-26 -28 -13 -5 -13 -3 1 13 17 19 17 20 0 26 -9 4 -14 4 -11 0 8 -8 -16 -34
-32 -34 -6 0 -8 -5 -5 -11 4 -6 -2 -5 -13 2 -12 7 -20 15 -18 19 1 3 -8 15
-21 27 l-23 22 1 -212 c1 -310 -11 -279 143 -392 l129 -95 87 0 88 0 -19 -75
c-18 -68 -18 -78 -4 -111 13 -31 18 -35 39 -30 20 5 26 1 32 -16 4 -14 2 -24
-5 -26 -9 -3 -9 -7 0 -18 9 -11 8 -14 -6 -14 -11 0 -15 -5 -12 -14 3 -8 -3
-22 -13 -31 -18 -16 -20 -16 -40 16 -13 21 -18 43 -15 57 3 14 2 21 -3 18 -15
-9 -24 -57 -13 -70 7 -9 7 -17 -2 -26 -7 -8 -8 -11 -1 -7 7 4 18 -1 25 -10 12
-15 12 -16 -5 -10 -29 11 -6 -13 77 -80 40 -32 110 -90 157 -129 47 -39 99
-78 116 -87 30 -15 32 -15 30 1 -1 12 6 16 24 15 105 -10 103 -11 155 28 28
21 74 62 103 91 l52 54 -32 -3 c-40 -4 -61 8 -52 31 5 12 12 15 28 9 11 -4 33
-7 48 -8 14 0 24 -3 21 -8 -12 -20 26 -3 74 33 29 23 57 38 62 35 5 -3 19 7
30 22 12 16 61 67 108 115 68 67 90 84 100 76 11 -8 21 -4 43 17 33 32 37 47
16 64 -12 10 -12 18 1 51 18 45 35 50 57 18 12 -17 13 -25 4 -37 -23 -31 239
235 289 294 46 54 49 61 30 62 -13 1 -17 -1 -10 -5 8 -5 -34 -57 -122 -152
-73 -80 -138 -146 -143 -148 -6 -2 -31 16 -55 40 -30 29 -52 42 -66 40 -43 -7
-121 67 -121 115 0 5 -22 30 -48 56 -48 47 -48 48 -67 27 -11 -12 -13 -20 -6
-20 7 0 9 -4 6 -10 -3 -5 0 -8 7 -5 7 3 19 1 27 -4 11 -7 8 -16 -14 -45 -31
-41 -49 -45 -65 -16 -15 27 -24 25 -59 -12 l-30 -33 27 -28 27 -28 -35 -29
-34 -28 -42 34 c-35 29 -43 32 -54 20 -12 -16 -5 -40 10 -31 4 3 13 -1 19 -9
8 -10 6 -20 -11 -42 -12 -16 -27 -32 -33 -36 -7 -5 -6 -8 1 -8 7 0 22 11 35
25 13 13 28 25 33 25 6 0 -3 -13 -19 -30 -16 -16 -27 -31 -24 -33 21 -17 85
-48 104 -51 14 -3 31 -11 38 -18 18 -18 51 -69 53 -82 1 -6 4 -25 7 -43 6 -40
-4 -49 -72 -58 -50 -7 -55 -5 -80 21 -15 16 -36 36 -47 44 -31 25 -155 110
-159 110 -2 0 -15 10 -28 23 -13 12 -50 44 -81 71 -31 26 -55 51 -52 53 3 3 1
14 -4 24 -15 26 4 64 40 82 29 15 32 15 48 -4 9 -10 19 -19 23 -19 3 0 25 -18
49 -40 24 -22 47 -40 52 -40 10 0 9 48 -1 110 l-7 45 -8 -42 c-4 -24 -11 -45
-15 -48 -5 -2 -20 9 -36 25 -15 16 -40 34 -56 40 -24 11 -26 15 -17 35 10 22
13 23 119 19 l108 -4 77 45 c51 30 83 43 97 40 17 -5 32 4 61 35 21 23 74 59
117 81 62 31 79 44 80 62 3 53 2 52 54 49 28 -2 58 -6 68 -8 12 -4 17 0 17 16
0 15 -5 20 -20 18 -10 -2 -19 1 -19 6 1 5 -6 13 -13 17 -16 9 -14 109 3 120 5
3 13 24 17 47 7 41 15 48 245 227 160 124 240 180 243 171 3 -8 17 -16 32 -19
16 -3 42 -24 62 -49 32 -39 35 -49 35 -108 0 -36 4 -66 9 -67 15 -3 23 -23 24
-66 2 -38 0 -43 -22 -45 -18 -1 -28 6 -40 32 -9 19 -16 46 -16 61 0 34 -44
126 -71 151 l-22 19 5 -42 c3 -22 18 -72 33 -109 26 -64 36 -136 23 -149 -3
-4 -9 17 -13 44 -9 68 -24 74 -21 10 2 -42 -2 -55 -23 -78 -14 -16 -50 -62
-79 -104 l-52 -76 21 -20 c39 -36 169 -27 344 24 45 13 67 14 112 5 173 -32
410 20 545 119 23 17 46 31 50 31 5 0 37 -22 71 -49 l62 -49 13 -119 c8 -65
16 -173 19 -240 l6 -122 132 -101 132 -101 7 -91 c3 -50 6 -123 7 -162 0 -39
3 -79 7 -88 4 -10 63 -60 132 -113 137 -104 136 -104 139 -215 l2 -65 269
-204 c148 -112 329 -241 404 -286 l135 -84 113 -5 c176 -7 188 -10 320 -94
l120 -75 112 -1 c61 -1 118 -5 127 -9 11 -5 51 18 140 81 l124 90 401 4 400 5
400 293 c219 161 401 294 402 295 4 4 22 199 18 202 -1 1 -54 -35 -116 -81
-63 -47 -116 -83 -117 -82 -2 1 1 46 5 99 4 53 6 97 5 97 -2 0 -115 -81 -251
-179 l-247 -180 -3 182 c-1 100 -1 186 2 192 2 6 58 50 124 98 117 84 121 88
116 119 -5 31 -1 36 63 81 61 42 73 47 118 46 28 -1 122 2 210 6 l161 7 29
-24 c17 -14 112 -73 212 -131 l181 -107 121 0 121 0 175 -143 c137 -110 218
-167 365 -254 141 -83 231 -145 348 -240 116 -94 204 -155 330 -228 94 -55
172 -103 172 -106 0 -4 -52 -47 -115 -95 l-116 -89 5 -70 c3 -38 8 -216 12
-395 4 -216 11 -350 20 -400 8 -41 17 -130 21 -198 5 -109 4 -124 -12 -142
-18 -20 -17 -20 1863 -20 l1882 0 0 1255 c0 1193 -1 1255 -17 1245 -10 -5 -35
-25 -56 -43 -36 -31 -39 -38 -54 -130 -16 -97 -17 -98 -62 -136 -25 -21 -131
-97 -234 -170 -154 -107 -344 -252 -416 -317 -8 -7 -22 -64 -32 -130 -10 -64
-22 -120 -26 -124 -4 -4 -75 -54 -158 -110 -82 -57 -220 -159 -305 -226 -345
-274 -335 -267 -338 -247 -2 10 -7 21 -10 25 -4 4 -113 -79 -242 -184 -180
-147 -235 -186 -237 -172 -1 11 -4 99 -6 198 l-3 179 118 94 c65 52 118 98
118 102 0 3 -17 87 -37 187 l-37 180 -160 92 c-151 87 -163 92 -218 92 -62 0
-72 9 -34 30 24 12 22 15 -125 137 -82 69 -149 128 -149 131 1 4 65 56 143
116 l143 109 17 130 c9 72 15 132 14 134 -2 1 -134 -99 -294 -222 -160 -124
-296 -225 -301 -225 -6 0 -149 115 -319 255 l-308 255 -6 128 c-9 163 -10 352
-4 352 3 0 142 -115 310 -255 167 -140 308 -255 313 -255 7 0 270 196 295 219
8 8 40 247 35 263 -2 5 -70 -41 -151 -102 l-148 -111 -145 121 c-80 67 -151
128 -158 135 -10 10 -15 79 -19 272 -5 196 -11 279 -26 346 -10 48 -21 90 -23
93 -3 2 -72 -45 -154 -105 l-149 -109 3 -228 c2 -126 6 -238 9 -249 5 -19 4
-19 -13 -4 -11 9 -82 69 -159 133 l-140 117 -7 82 c-3 45 -6 157 -7 248 l-1
166 150 108 c93 67 150 116 150 126 0 10 -7 53 -15 96 -8 43 -15 84 -15 91 0
7 66 -44 146 -113 141 -121 168 -139 160 -113 -3 7 -12 54 -21 103 l-17 91
-43 23 c-40 21 -45 28 -55 76 l-11 54 -193 105 -193 106 -86 0 -86 0 -234 130
-234 130 -262 0 c-262 0 -263 0 -305 25 l-43 25 -457 0 -458 1 8 67 c9 71 8
221 -1 230 -3 3 -5 -7 -5 -21 0 -18 -4 -25 -13 -21 -19 7 -15 59 5 58 8 -1 15
4 15 11 0 7 -6 11 -14 8 -15 -6 -13 111 4 327 7 90 8 98 13 55 4 -38 7 -18 13
80 7 122 33 289 89 567 12 65 26 118 29 118 4 0 9 -19 13 -42 7 -46 53 -219
89 -333 12 -38 22 -74 23 -80 0 -5 7 -23 13 -40 7 -16 14 -34 15 -40 1 -5 6
-17 11 -25 5 -8 11 -24 12 -35 2 -11 8 -24 13 -29 6 -6 10 -25 10 -43 0 -18 5
-33 11 -33 6 0 9 -7 5 -15 -3 -8 -1 -15 5 -15 7 0 9 -12 7 -29 -2 -17 -1 -28
3 -25 5 2 10 -10 13 -28 13 -84 14 -108 6 -108 -10 0 -18 -80 -8 -86 16 -10 7
-62 -16 -89 -15 -17 -22 -35 -18 -48 3 -13 1 -18 -6 -14 -20 13 -43 -5 -63
-49 -13 -29 -26 -44 -38 -44 -11 0 -21 -9 -24 -22 -4 -12 -5 -23 -4 -24 1 0
23 -13 48 -28 44 -25 53 -26 185 -26 94 0 144 4 152 12 9 9 16 8 29 -3 10 -9
49 -41 87 -73 l68 -57 247 3 248 3 259 194 c262 196 324 246 324 265 1 6 87
70 193 142 l192 131 335 6 336 5 519 -278 520 -279 327 -288 c180 -158 327
-291 328 -295 0 -5 -8 -8 -17 -8 -31 0 -133 -73 -932 -663 -185 -137 -342
-255 -349 -262 -10 -9 -12 -26 -7 -57 7 -44 13 -51 163 -180 l157 -134 23
-115 c15 -74 22 -149 22 -215 0 -185 -6 -174 140 -296 l127 -107 6 -143 c4
-79 7 -188 7 -243 0 -99 -1 -100 -29 -120 l-29 -20 102 2 c55 2 277 4 491 6
333 3 396 6 434 20 33 13 78 17 190 17 124 0 153 3 190 20 61 28 310 203 472
333 l135 108 18 115 19 115 73 60 74 60 0 201 0 200 -37 -28 c-21 -15 -93 -72
-160 -126 l-123 -99 -1 83 c-1 46 -6 238 -13 428 l-11 345 120 93 c66 51 121
98 123 105 1 7 -18 89 -42 182 -25 93 -44 170 -42 172 1 2 34 -25 72 -59 38
-34 79 -71 92 -82 l22 -19 0 4409 0 4410 -50 19 -50 19 -41 126 c-23 69 -73
214 -110 322 l-68 197 125 72 c69 39 128 78 131 85 7 18 -88 295 -103 300 -5
3 -65 -27 -131 -66 -67 -38 -123 -70 -126 -70 -2 0 -7 99 -11 220 l-6 220 -50
144 c-28 79 -50 146 -50 149 0 3 56 36 125 74 79 43 125 74 125 84 0 9 -9 41
-20 73 l-19 56 105 -110 c58 -60 115 -121 126 -135 11 -14 23 -25 27 -25 4 0
-14 62 -42 138 l-49 139 -84 38 c-77 35 -85 42 -96 76 -6 21 -16 40 -22 42
-118 48 -120 49 -106 30 8 -10 28 -33 44 -51 l30 -32 -62 25 c-34 14 -64 25
-66 25 -3 0 1 -18 9 -40 l14 -39 -52 20 c-29 11 -72 29 -97 40 l-45 19 -50
142 -50 142 -179 73 -179 73 -161 -1 -161 0 -120 -64z m-3006 -2295 c28 0 29
-2 24 -37 -3 -27 2 -50 17 -78 12 -22 24 -62 27 -88 5 -39 2 -52 -14 -70 -19
-20 -82 -174 -98 -239 -4 -16 -11 -28 -15 -28 -4 0 -25 -40 -46 -90 -21 -49
-42 -90 -46 -90 -7 0 -20 43 -30 95 -2 11 -9 19 -16 18 -11 -3 -10 16 3 81 2
11 -1 26 -7 33 -7 9 -7 25 0 55 9 33 8 46 -4 62 -16 23 -19 73 -5 78 10 3 81
238 81 267 0 9 9 27 20 39 20 21 23 21 50 7 16 -8 42 -15 59 -15z m-442 -182
c-3 -8 -6 -5 -6 6 -1 11 2 17 5 13 3 -3 4 -12 1 -19z m878 -76 c-4 -11 -8 -12
-20 -2 -8 7 -15 18 -15 25 0 8 -6 16 -12 19 -10 5 -10 7 0 12 7 3 18 12 25 19
10 10 14 5 20 -23 4 -20 5 -42 2 -50z m-835 -52 c0 -5 -4 -10 -10 -10 -5 0
-10 5 -10 10 0 6 5 10 10 10 6 0 10 -4 10 -10z m7 -162 c-3 -8 -6 -5 -6 6 -1
11 2 17 5 13 3 -3 4 -12 1 -19z m1128 -247 l49 -51 159 0 159 0 94 -42 c52
-24 94 -46 94 -49 0 -4 -23 -24 -51 -45 -61 -47 -114 -140 -105 -185 5 -26 -3
-35 -96 -111 -78 -63 -109 -96 -132 -139 l-31 -57 19 -88 c13 -63 19 -149 23
-308 4 -212 6 -229 45 -406 27 -125 46 -192 59 -206 10 -11 19 -25 19 -31 0
-5 -38 -40 -84 -76 -50 -40 -95 -85 -110 -111 -25 -43 -26 -50 -26 -204 l0
-160 -97 -78 c-54 -42 -99 -78 -99 -78 -1 -1 -8 -79 -15 -175 l-13 -175 -82
-64 c-46 -36 -85 -74 -87 -86 -3 -11 -11 -92 -18 -178 -7 -87 -15 -161 -18
-166 -3 -5 -42 -36 -85 -71 -44 -34 -91 -78 -105 -99 l-26 -37 0 -245 0 -245
-102 -3 c-102 -3 -102 -3 -182 38 -55 27 -94 40 -121 40 -26 0 -65 12 -110 35
l-70 35 -40 -25 c-22 -14 -42 -25 -44 -25 -3 0 -16 25 -30 56 -43 95 -171 201
-301 250 -16 7 -43 18 -60 24 -16 7 -39 15 -50 17 -11 2 -25 9 -32 16 -10 10
-8 15 10 26 17 11 19 11 10 0 -55 -57 96 18 187 94 89 73 148 164 221 337 34
80 85 201 114 270 68 162 103 227 174 323 76 103 258 396 283 456 13 29 34 56
56 72 58 39 195 211 237 296 21 44 48 123 61 182 l24 104 -18 107 c-24 137
-74 231 -175 326 -37 35 -71 64 -75 64 -10 0 -13 168 -2 175 5 3 77 -1 160
-10 84 -8 155 -13 159 -10 4 2 13 30 21 62 37 167 33 158 69 161 l33 3 -9 42
c-14 71 -1 304 17 317 12 8 50 97 50 117 0 10 3 28 6 40 8 29 23 21 89 -46z
m-635 -1186 c10 -12 10 -15 -3 -15 -8 0 -17 7 -21 15 -3 8 -2 15 3 15 5 0 14
-7 21 -15z m2261 -2253 l4 -213 -130 -84 -130 -84 -8 127 c-4 70 -6 167 -5
216 l3 90 129 83 c71 46 130 82 132 81 1 -2 3 -99 5 -216z m-4424 2 c-3 -3
-12 -4 -19 -1 -8 3 -5 6 6 6 11 1 17 -2 13 -5z m4616 -876 l15 -56 -63 -47
c-34 -26 -80 -68 -102 -94 -34 -39 -41 -56 -47 -106 -14 -120 -16 -124 -63
-156 -24 -17 -46 -29 -48 -27 -2 2 -6 100 -10 218 l-7 215 149 97 148 98 6
-43 c4 -23 14 -67 22 -99z m-2524 -469 c1 -16 -6 -29 -15 -33 -9 -4 -18 -5
-19 -4 -2 2 -5 71 -9 153 l-5 150 24 -120 c13 -66 24 -132 24 -146z m107 -538
c5 -5 33 -29 62 -55 l53 -46 -343 -226 c-188 -125 -348 -229 -356 -231 -10 -4
-12 34 -10 192 l3 198 275 179 275 179 16 -91 c9 -50 20 -95 25 -99z m2234
-170 l25 -103 -25 -20 -25 -20 -6 113 c-4 63 -6 166 -6 229 l1 115 6 -105 c3
-58 16 -152 30 -209z m-3119 -98 c1 -49 4 -223 8 -388 4 -165 6 -302 5 -303
-2 -2 -61 47 -133 108 l-130 112 -3 199 -3 199 120 79 c66 44 123 80 128 80 4
1 7 -38 8 -86z m1097 -9 c1 0 11 -50 22 -110 19 -108 20 -109 65 -150 25 -22
45 -48 45 -57 0 -9 86 -92 190 -184 l190 -167 0 -72 0 -72 107 -93 c59 -52
116 -101 127 -110 18 -15 14 -19 -98 -97 -64 -45 -120 -82 -123 -82 -3 0 -50
39 -105 88 -55 48 -113 97 -128 109 l-27 22 -123 -84 c-104 -71 -126 -82 -140
-72 -9 7 -127 108 -262 225 l-245 212 -6 128 c-4 70 -7 159 -7 198 l0 72 242
160 c199 132 245 159 258 149 8 -6 16 -12 18 -13z m-6310 -1 c-10 -2 -28 -2
-40 0 -13 2 -5 4 17 4 22 1 32 -1 23 -4z m704 -377 c90 -35 200 -80 246 -101
77 -35 83 -40 78 -64 -3 -14 -8 -56 -11 -93 -4 -38 -10 -68 -15 -68 -4 0 -13
-42 -20 -93 -12 -91 -13 -94 -44 -106 -17 -7 -91 -15 -163 -18 l-133 -6 0 -33
c0 -35 -10 -40 -55 -28 -17 4 -20 12 -17 39 l4 33 -71 13 c-39 6 -71 17 -71
23 0 46 28 161 70 285 26 80 53 163 58 183 10 36 9 37 -23 45 -29 7 -32 11
-24 31 5 12 13 22 18 22 6 0 83 -29 173 -64z m-737 -31 c-8 -19 -22 -51 -30
-70 -8 -19 -17 -35 -20 -35 -3 0 -23 16 -45 36 l-39 36 27 34 c24 30 32 34 75
34 l47 0 -15 -35z m-135 10 c-10 -12 -16 -13 -26 -4 -20 16 -18 19 12 19 22 0
25 -2 14 -15z m26 -152 c16 -13 23 -21 15 -17 -10 5 -10 1 2 -17 11 -17 12
-31 6 -48 -10 -24 -10 -24 -64 29 -56 56 -69 92 -42 119 10 10 16 7 33 -15 12
-14 35 -37 50 -51z m1289 -24 c162 -74 561 -324 855 -534 277 -197 352 -229
550 -229 69 -1 177 3 240 7 127 9 223 -4 330 -47 l55 -22 6 -75 c5 -73 5 -76
-37 -154 -89 -169 -119 -360 -88 -562 4 -26 1 -33 -12 -33 -9 0 -39 -18 -68
-41 -40 -32 -52 -37 -54 -25 -2 9 -8 16 -13 16 -12 0 -408 -260 -481 -317 -35
-26 -65 -42 -74 -39 -8 3 -64 35 -125 71 l-110 64 7 -49 c4 -28 4 -50 1 -50
-3 0 -58 31 -124 70 l-118 69 -5 -49 -5 -50 -115 68 c-95 56 -116 72 -120 95
l-5 28 -128 -83 -129 -83 5 -85 5 -86 -126 -82 -127 -82 -11 273 c-7 149 -12
273 -13 274 -1 2 -30 25 -65 53 -62 49 -64 51 -70 108 -4 31 -9 71 -12 89 -6
30 -3 33 69 79 l75 48 5 330 c4 251 9 344 20 383 8 28 13 54 11 56 -2 2 0 75
6 163 5 87 12 201 15 253 l6 93 -38 -22 c-21 -13 -53 -32 -71 -43 l-34 -20 7
84 c6 85 13 129 19 129 2 0 43 -18 91 -41z m1081 20 c19 -22 19 -22 -3 -10
-13 6 -23 16 -23 21 0 15 5 12 26 -11z m-2423 -81 c-5 -22 -5 -22 9 -4 14 18
15 18 13 -5 -3 -31 5 -45 16 -28 7 11 9 11 9 1 0 -7 4 -11 8 -8 5 3 5 -17 -1
-44 l-10 -50 -43 0 -44 0 0 68 c0 60 2 68 23 78 12 7 23 12 24 13 0 0 -1 -9
-4 -21z m5980 -297 c136 -117 247 -214 247 -216 0 -5 -218 -155 -235 -161 -9
-4 -63 37 -145 107 l-130 113 0 156 c0 85 -3 172 -7 194 -5 32 -4 37 9 30 8
-5 125 -105 261 -223z m-2313 -22 c0 -5 4 -8 8 -5 5 3 10 -22 11 -54 l2 -60
-38 -17 c-21 -10 -41 -22 -44 -27 -8 -11 -31 2 -24 14 3 4 -10 13 -28 19 l-32
12 25 19 c20 16 22 22 11 29 -11 7 -3 12 30 21 72 18 75 20 60 29 -7 5 -10 14
-7 20 9 14 26 14 26 0z m4 -367 c-3 -10 -8 -28 -10 -42 -2 -13 -11 -30 -20
-37 -10 -7 -12 -13 -6 -13 7 0 12 -4 12 -9 0 -10 -61 -34 -68 -26 -3 3 0 5 7
5 7 0 9 4 6 10 -4 6 1 7 12 3 15 -5 16 -3 6 8 -19 19 -16 29 10 29 16 0 18 3
9 9 -8 4 -14 12 -14 17 0 5 -4 8 -10 6 -5 -1 -6 2 -3 8 4 6 13 9 20 6 19 -7
26 4 14 25 -6 13 -6 19 1 19 5 0 10 -4 10 -10 0 -5 5 -10 12 -10 6 0 3 9 -7
20 -17 19 -17 21 1 41 l19 21 3 -32 c2 -17 0 -39 -4 -48z m-49 -2 c3 -5 1 -10
-4 -10 -6 0 -11 5 -11 10 0 6 2 10 4 10 3 0 8 -4 11 -10z m-4315 -60 c-8 -5
-19 -10 -25 -10 -5 0 -3 5 5 10 8 5 20 10 25 10 6 0 3 -5 -5 -10z m4297 4 c-3
-3 -12 -4 -19 -1 -8 3 -5 6 6 6 11 1 17 -2 13 -5z m-37 -78 c0 -2 -7 -7 -16
-10 -8 -3 -12 -2 -9 4 6 10 25 14 25 6z m-4852 -51 c-3 -3 -9 2 -12 12 -6 14
-5 15 5 6 7 -7 10 -15 7 -18z m-134 -41 l-7 -28 -9 24 c-6 16 -5 26 4 31 18
11 20 5 12 -27z m71 -214 c-3 -5 -11 -10 -16 -10 -6 0 -7 5 -4 10 3 6 11 10
16 10 6 0 7 -4 4 -10z m158 -15 c-3 -9 -8 -14 -10 -11 -3 3 -2 9 2 15 9 16 15
13 8 -4z m5007 -87 c0 -12 -14 -9 -35 6 -12 9 -16 19 -11 32 7 18 8 17 26 -6
11 -14 20 -28 20 -32z m-5160 -2 c0 -3 -4 -8 -10 -11 -5 -3 -10 -1 -10 4 0 6
5 11 10 11 6 0 10 -2 10 -4z m5186 -99 c-26 -10 -27 -7 -14 37 l12 37 11 -33
c9 -29 8 -34 -9 -41z m-4431 -77 c-3 -5 -11 -10 -16 -10 -6 0 -7 5 -4 10 3 6
11 10 16 10 6 0 7 -4 4 -10z m1107 -61 c-2 -24 -5 -45 -7 -47 -1 -2 -18 7 -38
18 -29 17 -36 28 -39 59 l-3 38 45 -12 45 -12 -3 -44z m-1152 41 c-8 -5 -17
-7 -19 -4 -3 3 1 9 9 14 8 5 17 7 19 4 3 -3 -1 -9 -9 -14z m310 -60 c0 -5 -11
-10 -24 -10 -13 0 -26 -5 -28 -12 -4 -11 -126 -16 -168 -6 -24 5 -39 22 -27
30 18 11 247 9 247 -2z m-447 -144 c3 -8 -2 -20 -11 -28 -11 -9 -14 -10 -8 0
4 7 2 12 -5 12 -8 0 -8 4 1 15 15 18 17 18 23 1z m1467 -1 c7 -8 16 -15 21
-15 5 0 9 7 9 15 0 19 9 19 31 -1 9 -8 34 -17 56 -19 58 -6 74 -10 82 -23 11
-18 81 -45 81 -31 0 8 7 6 18 -4 10 -10 23 -17 29 -17 6 0 30 -19 53 -42 24
-24 46 -42 50 -41 4 1 17 -9 30 -22 20 -22 22 -31 17 -107 -5 -84 -28 -213
-40 -225 -4 -3 -7 0 -7 8 -1 8 -8 2 -16 -13 -8 -16 -19 -28 -24 -28 -6 0 -10
-20 -10 -45 0 -43 -1 -45 -20 -35 -18 10 -20 8 -20 -25 0 -33 -4 -37 -60 -65
l-60 -30 0 40 c0 22 -2 40 -5 40 -3 0 -22 -7 -42 -15 -45 -19 -120 -19 -153 0
-42 24 -53 19 -47 -20 7 -40 7 -40 -55 -49 l-48 -7 0 35 c0 20 -2 36 -5 36 -2
0 -27 -9 -55 -20 -53 -21 -70 -19 -70 6 0 11 -6 13 -21 9 -21 -7 -21 -6 -6 16
16 22 16 23 -13 35 -42 18 -64 66 -52 115 8 31 7 41 -6 51 -13 11 -14 9 -8
-24 8 -45 4 -47 -19 -12 -16 24 -16 26 2 39 14 11 16 17 7 32 -10 16 -7 25 17
54 33 39 35 36 13 -16 -8 -20 -14 -39 -12 -41 7 -6 68 38 68 49 -1 7 -7 23
-14 36 -13 23 -10 26 38 66 29 23 64 50 79 60 l28 18 -27 28 c-27 28 -27 29
-8 50 10 12 39 33 63 47 l44 26 -33 25 -33 26 49 22 c58 26 87 28 104 8z
m4510 -240 l161 -134 -39 -28 c-21 -15 -91 -64 -155 -108 l-116 -80 -1 -196
c0 -108 3 -224 6 -257 l7 -62 158 -127 c87 -71 158 -130 158 -133 0 -6 -291
-212 -306 -217 -6 -2 -158 116 -339 263 -181 147 -330 267 -331 268 -1 1 -5
114 -8 251 l-7 250 323 222 c178 122 325 222 326 223 0 0 74 -61 163 -135z
m-7750 88 c0 -26 -1 -26 -15 -7 -19 25 -19 34 0 34 10 0 15 -10 15 -27z m9111
-155 l136 -116 18 -106 c18 -105 18 -107 -1 -120 -10 -8 -77 -56 -149 -108
l-130 -94 0 -247 c0 -136 -3 -246 -6 -245 -3 2 -76 62 -162 133 l-157 130 -2
213 c-1 116 -2 226 -2 244 -1 28 7 37 74 85 41 29 112 80 156 112 l82 59 -14
78 c-7 44 -16 92 -19 108 l-5 30 22 -20 c13 -12 84 -73 159 -136z m-4586 -62
c66 -53 123 -96 127 -96 3 0 4 34 1 75 -3 41 -4 75 -1 75 3 0 59 -43 124 -95
66 -52 122 -95 126 -95 4 0 5 35 1 77 l-6 77 29 -22 c16 -11 41 -31 56 -44
l28 -23 -49 -35 c-64 -45 -88 -103 -93 -217 -3 -89 1 -82 -79 -138 l-36 -26
-38 22 -37 22 3 -50 c4 -48 2 -52 -33 -77 -21 -15 -38 -31 -38 -35 0 -5 20
-25 45 -45 43 -36 45 -40 45 -89 l-1 -52 -129 -86 -130 -87 0 169 c0 136 -24
618 -43 851 -2 26 -1 46 2 44 3 -2 60 -47 126 -100z m8253 -210 c62 -55 112
-103 112 -107 0 -4 -50 -45 -112 -93 -78 -60 -114 -82 -119 -74 -13 24 -16
387 -4 380 7 -4 62 -52 123 -106z m-10423 4 c-3 -5 -10 -10 -16 -10 -5 0 -9 5
-9 10 0 6 7 10 16 10 8 0 12 -4 9 -10z m80 -25 c-11 -8 -25 -19 -32 -25 -7 -5
-16 -10 -21 -10 -5 0 -136 -59 -292 -130 -196 -90 -286 -127 -291 -119 -4 8 5
21 24 34 55 36 61 39 52 26 -6 -10 -3 -11 14 -2 11 7 21 16 21 22 0 6 4 8 9 5
5 -4 11 -2 13 3 1 6 20 17 41 26 29 12 37 13 32 3 -3 -7 1 -4 9 6 9 11 16 16
16 10 0 -5 4 -4 8 2 7 12 206 114 219 114 5 -1 -27 -19 -69 -41 -43 -21 -78
-41 -78 -44 0 -4 147 62 253 114 41 21 76 33 82 28 6 -5 3 -14 -10 -22z m-585
5 c9 -16 8 -20 -5 -20 -8 0 -15 9 -15 20 0 11 2 20 5 20 2 0 9 -9 15 -20z
m737 -68 c51 -52 95 -141 101 -204 4 -41 2 -48 -13 -48 -10 0 -16 3 -13 6 14
14 -56 162 -107 225 -48 59 -52 68 -32 66 12 -1 41 -21 64 -45z m-597 14 c0
-3 -51 -44 -112 -91 -68 -51 -115 -80 -117 -73 -8 24 168 167 207 168 12 0 22
-2 22 -4z m-602 -185 c-2 -9 -10 -16 -18 -16 -24 0 -18 -40 7 -43 16 -2 26 5
38 32 9 19 24 37 32 40 14 6 14 4 2 -11 -10 -14 -8 -13 10 2 13 11 31 20 40
20 9 0 22 4 29 9 7 4 19 5 27 2 8 -3 16 -2 19 2 2 4 18 9 35 10 43 3 41 -24
-1 -33 -41 -9 -132 -47 -136 -57 -2 -4 -10 -4 -18 -1 -8 3 -14 1 -14 -5 0 -5
7 -12 14 -15 12 -5 13 -13 5 -39 -7 -26 -6 -35 6 -44 18 -14 20 -28 3 -19 -7
4 -2 -3 11 -14 13 -12 28 -21 34 -21 6 0 4 6 -5 13 -9 6 -21 30 -27 52 -9 33
-8 42 5 52 10 7 11 13 5 18 -27 16 -7 23 30 10 51 -18 50 -18 43 -1 -5 12 2
13 37 5 24 -6 46 -12 48 -15 3 -2 -10 -18 -28 -34 -23 -21 -31 -36 -26 -49 3
-11 1 -22 -4 -25 -5 -4 -15 10 -21 29 -6 19 -16 35 -21 35 -12 0 -12 -47 1
-55 16 -10 11 -35 -7 -35 -9 0 -13 -3 -10 -7 8 -7 -23 -32 -40 -33 -7 0 -13 7
-13 15 0 8 -5 15 -10 15 -7 0 -7 -6 0 -19 8 -17 3 -24 -39 -54 -58 -42 -71
-37 -90 32 -10 36 -10 45 1 53 11 8 10 11 -1 15 -46 18 -107 127 -81 143 10 6
9 18 -2 58 l-15 50 74 -25 c56 -19 73 -29 71 -42z m296 53 c25 -9 19 -24 -9
-24 -16 0 -25 6 -25 15 0 16 9 19 34 9z m-470 -16 c7 -7 15 -21 18 -30 5 -13
2 -16 -14 -13 -28 6 -47 26 -30 32 6 3 10 9 6 14 -8 13 5 11 20 -3z m-31 -58
c3 -14 14 -20 31 -20 20 0 26 -5 26 -22 0 -13 6 -35 14 -50 l14 -26 -34 20
c-58 34 -41 -3 21 -48 30 -21 55 -42 55 -46 0 -11 -47 -21 -65 -14 -8 3 -15 1
-15 -4 0 -5 -7 -7 -15 -4 -8 4 -15 2 -15 -4 0 -15 -29 -25 -96 -31 l-62 -6
-17 50 c-22 63 -57 110 -97 131 -17 9 -26 19 -22 23 5 5 45 14 89 21 43 8 100
22 125 31 57 23 57 23 63 -1z m364 -16 c-3 -3 -12 -4 -19 -1 -8 3 -5 6 6 6 11
1 17 -2 13 -5z m220 0 c-3 -3 -12 -4 -19 -1 -8 3 -5 6 6 6 11 1 17 -2 13 -5z
m-819 -87 c31 -29 54 -73 63 -121 6 -34 3 -44 -27 -83 -18 -24 -37 -50 -41
-57 -5 -7 -18 -18 -30 -25 -34 -18 -40 -51 -12 -72 20 -16 22 -20 10 -28 -10
-6 -22 -6 -33 0 -10 5 -18 6 -18 2 0 -4 -4 -3 -8 3 -4 6 -16 16 -27 21 -12 7
-24 31 -32 65 -10 46 -9 66 8 153 28 137 39 173 58 178 23 5 62 -11 89 -36z
m908 -34 c-3 -19 31 -56 45 -48 4 3 1 -8 -7 -25 -22 -44 -28 -94 -15 -132 9
-24 9 -30 0 -21 -20 20 -22 95 -5 138 13 33 13 37 1 21 -21 -27 -29 -78 -22
-142 l6 -54 -72 -36 c-40 -20 -94 -51 -122 -69 -80 -51 -104 -65 -110 -65 -3
0 -5 12 -5 26 0 16 -4 23 -11 18 -15 -9 -29 14 -29 47 0 15 -7 40 -15 55 -13
27 -13 29 4 36 21 7 103 63 165 111 21 17 64 47 96 68 32 21 66 49 76 63 19
31 23 32 20 9z m-540 -114 c14 -23 -22 -29 -76 -13 -13 5 -13 6 0 14 21 13 67
12 76 -1z m-99 -68 c13 -19 23 -38 23 -42 0 -13 -97 -11 -121 1 -19 11 -18 12
7 46 33 43 60 42 91 -5z m103 29 c0 -5 -7 -10 -16 -10 -8 0 -12 5 -9 10 3 6
10 10 16 10 5 0 9 -4 9 -10z m1300 -36 c0 -2 -9 -4 -21 -4 -11 0 -18 4 -14 10
5 8 35 3 35 -6z m-1866 -127 c-4 -12 -7 -34 -6 -49 2 -18 -6 -33 -25 -47 -32
-26 -37 -20 -54 57 -13 57 -8 72 17 51 15 -12 16 -12 10 8 -5 15 -2 24 11 32
25 14 57 -21 47 -52z m720 21 c-5 -7 -9 -21 -9 -31 0 -21 -61 -52 -70 -36 -4
5 -2 9 4 9 22 0 62 21 56 29 -3 6 -21 4 -43 -5 l-37 -15 30 25 c17 14 36 23
43 21 7 -3 15 2 19 11 3 8 8 13 10 10 3 -3 1 -11 -3 -18z m-821 -38 c3 -11 1
-20 -5 -20 -5 0 -6 -6 -1 -12 4 -7 8 -15 9 -18 0 -3 6 -18 13 -34 16 -40 7
-43 -18 -7 -34 47 -47 91 -30 102 21 13 26 11 32 -11z m225 -36 c4 -5 19 -15
35 -21 31 -14 33 -29 12 -69 -24 -46 -19 -60 25 -78 36 -14 40 -20 40 -50 0
-18 -6 -38 -12 -44 -16 -13 -87 -13 -110 -1 -21 11 -23 51 -6 79 10 16 8 32
-11 91 -19 59 -21 73 -9 80 9 6 10 9 1 9 -7 0 -13 4 -13 8 0 12 40 8 48 -4z
m592 -58 c0 -2 -13 -9 -30 -15 -35 -12 -41 -5 -7 9 25 10 37 12 37 6z m41 -44
c-13 -11 -17 -10 -19 3 -2 9 2 23 9 31 12 14 14 14 20 -3 4 -11 1 -23 -10 -31z
m222 -134 c-18 -18 -36 -29 -39 -25 -10 10 36 57 55 57 11 0 6 -10 -16 -32z
m7 -23 c-26 -28 -19 -46 10 -27 12 7 20 8 20 2 0 -18 20 -11 21 8 0 14 2 14 9
-3 5 -11 9 -27 9 -35 0 -9 -4 -8 -9 5 -7 16 -9 17 -9 3 -1 -9 7 -24 17 -34 16
-17 17 -17 20 9 3 28 12 33 28 17 5 -5 27 -13 49 -18 24 -5 39 -14 37 -21 -1
-7 2 -19 9 -27 8 -10 -1 -23 -42 -61 -29 -26 -71 -68 -94 -93 -66 -73 -137
-146 -131 -133 4 6 2 31 -3 55 -7 31 -21 53 -52 81 -23 20 -47 37 -54 37 -7 0
-18 7 -25 15 -10 12 -6 23 25 61 21 25 60 63 86 83 26 20 48 40 48 45 1 10 41
56 49 56 3 0 -5 -11 -18 -25z m3430 -164 c0 -3 -26 -23 -58 -44 -31 -21 -67
-45 -79 -54 l-23 -15 0 121 0 122 80 -62 c44 -34 80 -65 80 -68z m-4130 75 c0
-13 8 -34 19 -47 15 -19 22 -21 33 -11 11 9 17 9 26 0 16 -16 15 -38 0 -38 -9
0 -9 -3 0 -12 17 -17 15 -29 -3 -22 -10 4 -15 0 -15 -14 0 -11 -7 -25 -16 -33
-13 -10 -17 -10 -25 2 -25 38 -30 53 -24 77 6 23 4 24 -10 12 -18 -15 -16 -59
4 -101 l12 -24 -20 24 c-12 13 -21 31 -21 41 0 11 -10 20 -26 24 -18 5 -23 10
-16 19 5 7 15 34 21 62 7 27 18 53 24 57 22 14 37 8 37 -16z m-57 -156 c9 -11
14 -20 11 -20 -2 0 12 -18 33 -41 21 -22 38 -46 38 -52 0 -6 7 -12 15 -14 13
-4 13 -3 0 6 -8 6 -12 11 -7 11 4 0 67 -50 140 -111 72 -60 148 -119 169 -129
28 -15 35 -24 31 -40 -5 -19 -14 -22 -101 -34 -16 -2 -34 8 -61 35 -21 22 -43
39 -49 39 -7 0 -12 3 -12 8 0 4 -28 25 -63 47 -34 22 -63 43 -65 47 -2 4 -34
30 -71 57 -109 79 -132 156 -60 196 33 18 32 18 52 -5z m4622 -130 l100 -5
-65 -45 c-35 -25 -68 -48 -73 -51 -5 -4 -9 -93 -8 -198 1 -105 -1 -191 -4
-191 -8 0 -238 180 -252 198 -9 11 -13 68 -13 200 0 235 -2 232 125 153 l90
-56 100 -5z m6658 -181 l40 -35 -116 -92 c-64 -51 -118 -92 -121 -92 -10 0
-15 69 -18 236 l-3 172 89 -77 c49 -42 107 -92 129 -112z m-6208 91 l100 -60
355 0 c283 0 352 -3 342 -12 -7 -7 -63 -49 -125 -94 l-112 -80 3 -195 3 -194
-125 -89 c-68 -49 -127 -88 -131 -88 -3 0 -123 91 -266 203 l-259 202 0 111
c0 61 -3 147 -6 191 l-6 80 58 42 c33 22 61 41 64 42 3 0 50 -26 105 -59z
m-4477 -45 c-12 -27 -60 -42 -97 -30 -33 10 -24 24 12 18 24 -3 39 1 57 16 33
27 42 26 28 -4z m-252 -210 c-9 -14 -22 -25 -29 -25 -6 0 -21 -3 -32 -6 -11
-3 -29 1 -39 9 -18 13 -17 14 22 13 31 0 48 5 64 21 28 28 36 21 14 -12z"/>
<path d="M6762 4943 c43 -36 48 -43 48 -73 0 -20 24 -44 110 -113 61 -48 116
-90 123 -93 9 -3 11 15 7 72 l-5 76 -135 79 c-74 43 -145 79 -158 79 -22 0
-22 -2 10 -27z"/>
<path d="M5230 3997 c0 -2 15 -16 33 -33 l32 -29 -29 33 c-28 30 -36 37 -36
29z"/>
<path d="M3810 3670 c0 -5 5 -10 11 -10 5 0 7 5 4 10 -3 6 -8 10 -11 10 -2 0
-4 -4 -4 -10z"/>
<path d="M3928 3606 c12 -23 24 -33 38 -32 19 1 18 4 -12 34 -41 41 -48 41
-26 -2z"/>
<path d="M3835 3620 c3 -5 8 -10 11 -10 2 0 4 5 4 10 0 6 -5 10 -11 10 -5 0
-7 -4 -4 -10z"/>
<path d="M4542 3573 c-2 -26 -1 -26 12 -8 8 11 12 23 10 27 -10 16 -20 7 -22
-19z"/>
<path d="M3390 3255 c0 -8 7 -15 15 -15 9 0 12 6 9 15 -4 8 -10 15 -15 15 -5
0 -9 -7 -9 -15z"/>
<path d="M4610 2905 c0 -8 2 -15 4 -15 2 0 6 7 10 15 3 8 1 15 -4 15 -6 0 -10
-7 -10 -15z"/>
<path d="M4455 2830 c3 -5 8 -10 11 -10 2 0 4 5 4 10 0 6 -5 10 -11 10 -5 0
-7 -4 -4 -10z"/>
<path d="M4320 2796 c0 -2 7 -7 16 -10 8 -3 12 -2 9 4 -6 10 -25 14 -25 6z"/>
<path d="M3825 2570 c3 -5 8 -10 11 -10 2 0 4 5 4 10 0 6 -5 10 -11 10 -5 0
-7 -4 -4 -10z"/>
<path d="M15358 15263 c71 -81 112 -120 111 -107 0 5 -10 35 -22 68 -21 56
-24 59 -81 82 -33 13 -61 24 -64 24 -2 0 23 -30 56 -67z"/>
<path d="M7400 14711 c58 -56 117 -110 133 -122 l27 -20 0 28 c0 91 -5 98
-104 143 -173 80 -171 81 -56 -29z"/>
<path d="M7610 14610 c-6 -11 -8 -20 -6 -20 3 0 10 9 16 20 6 11 8 20 6 20 -3
0 -10 -9 -16 -20z"/>
<path d="M7624 14577 c-10 -18 -27 -45 -39 -62 -40 -54 -54 -91 -59 -160 -2
-37 -2 -64 1 -61 10 10 33 -15 26 -28 -4 -6 2 -4 12 4 14 12 19 12 23 2 3 -10
8 -8 18 5 18 24 17 36 -2 29 -14 -5 -15 -4 -4 9 7 8 9 15 5 15 -4 0 -3 6 4 13
8 10 7 17 -1 25 -18 18 -35 14 -52 -10 -13 -18 -16 -19 -16 -5 0 9 5 17 10 17
6 0 10 7 10 16 0 8 4 13 9 10 5 -4 11 -1 13 5 3 8 10 5 22 -6 17 -17 18 -17
34 1 16 17 16 17 0 5 -15 -11 -16 -10 -14 11 5 35 17 59 27 52 5 -3 12 8 15
25 4 17 12 31 18 31 7 0 7 3 1 8 -5 4 -10 13 -11 20 -1 6 -2 21 -2 31 -3 34
-31 33 -48 -2z m-9 -57 c-9 -14 8 -13 23 2 6 6 14 9 18 6 8 -9 -35 -30 -46
-23 -10 6 -5 25 6 25 3 0 2 -4 -1 -10z"/>
<path d="M15866 14489 c-66 -38 -123 -72 -128 -77 -8 -8 27 -129 43 -146 4 -5
55 18 113 50 l106 59 0 87 c0 48 -3 89 -7 91 -5 2 -62 -27 -127 -64z"/>
<path d="M7980 14477 c0 -4 -4 -5 -10 -2 -5 3 -10 -1 -10 -9 0 -9 6 -13 14
-10 8 3 25 -7 40 -22 14 -16 28 -25 32 -21 4 4 2 7 -5 7 -7 0 -9 5 -6 10 3 6
1 10 -5 10 -6 0 -9 4 -6 9 10 16 -5 40 -25 38 -10 -1 -19 -5 -19 -10z"/>
<path d="M7835 14470 c-3 -5 -1 -10 4 -10 6 0 11 5 11 10 0 6 -2 10 -4 10 -3
0 -8 -4 -11 -10z"/>
<path d="M7965 14420 c-3 -5 -1 -10 4 -10 6 0 11 5 11 10 0 6 -2 10 -4 10 -3
0 -8 -4 -11 -10z"/>
<path d="M7775 14393 c5 -18 3 -20 -16 -16 -18 5 -21 3 -16 -11 4 -10 7 -20 7
-22 0 -3 9 0 20 6 17 9 20 8 20 -8 0 -10 7 -27 15 -38 15 -18 15 -18 8 0 -5
15 -3 17 8 11 8 -5 5 2 -6 14 -11 13 -19 26 -18 30 0 3 -5 17 -13 31 -13 21
-14 22 -9 3z"/>
<path d="M7915 14380 c-8 -13 5 -13 25 0 13 8 13 10 -2 10 -9 0 -20 -4 -23
-10z"/>
<path d="M7905 14350 c3 -5 8 -10 11 -10 2 0 4 5 4 10 0 6 -5 10 -11 10 -5 0
-7 -4 -4 -10z"/>
<path d="M8057 14349 c7 -7 15 -10 18 -7 3 3 -2 9 -12 12 -14 6 -15 5 -6 -5z"/>
<path d="M7765 14320 c-4 -6 -11 -8 -16 -5 -15 10 -10 -11 9 -35 l18 -22 2 36
c3 36 -2 45 -13 26z"/>
<path d="M8090 14291 c0 -10 7 -24 15 -31 13 -11 13 -8 4 19 -12 35 -19 40
-19 12z"/>
<path d="M7855 14290 c-3 -5 -1 -18 4 -27 9 -16 10 -14 11 10 0 28 -5 34 -15
17z"/>
<path d="M7903 14273 c-7 -3 -13 -13 -13 -24 0 -12 -5 -16 -15 -13 -11 5 -13
2 -9 -11 5 -12 17 -16 43 -14 20 1 49 -4 65 -10 16 -6 31 -10 33 -7 5 5 -59
30 -70 27 -5 -1 -6 3 -2 9 3 5 12 10 20 10 8 0 17 5 21 12 5 7 3 8 -6 3 -10
-6 -12 -4 -7 8 3 10 2 17 -3 17 -6 0 -10 -5 -10 -10 0 -7 -6 -7 -17 -2 -10 5
-24 7 -30 5z"/>
<path d="M8000 14249 c0 -5 5 -7 10 -4 6 3 10 8 10 11 0 2 -4 4 -10 4 -5 0
-10 -5 -10 -11z"/>
<path d="M7010 14196 c0 -2 7 -7 16 -10 8 -3 12 -2 9 4 -6 10 -25 14 -25 6z"/>
<path d="M7093 14173 c-20 -7 -15 -21 10 -29 12 -3 29 -13 39 -21 9 -8 19 -10
22 -5 6 9 -42 37 -58 33 -5 -1 -6 5 -3 14 4 8 5 15 4 14 -1 0 -8 -3 -14 -6z"/>
<path d="M7864 14161 c3 -4 -12 -16 -34 -26 -36 -16 -45 -26 -41 -47 0 -5 -9
-8 -21 -8 -21 -1 -21 -2 -5 -11 9 -6 26 -7 37 -4 11 3 28 1 40 -5 19 -10 20
-8 20 34 0 30 5 46 15 50 20 7 19 26 -1 26 -8 0 -13 -4 -10 -9z"/>
<path d="M7934 14154 c9 -8 20 -12 26 -9 19 12 10 25 -16 25 -23 0 -24 -1 -10
-16z"/>
<path d="M6955 14150 c-3 -5 -2 -17 3 -26 8 -14 10 -14 15 5 5 22 -7 38 -18
21z"/>
<path d="M7976 14143 c-6 -14 -5 -15 5 -6 7 7 10 15 7 18 -3 3 -9 -2 -12 -12z"/>
<path d="M7326 14135 c-3 -8 -1 -15 3 -15 5 0 11 7 15 15 3 8 1 15 -3 15 -5 0
-11 -7 -15 -15z"/>
<path d="M9650 14130 c0 -5 5 -10 10 -10 6 0 10 5 10 10 0 6 -4 10 -10 10 -5
0 -10 -4 -10 -10z"/>
<path d="M7355 14120 c-3 -6 1 -7 9 -4 18 7 21 14 7 14 -6 0 -13 -4 -16 -10z"/>
<path d="M9715 14120 c3 -5 8 -10 11 -10 2 0 4 5 4 10 0 6 -5 10 -11 10 -5 0
-7 -4 -4 -10z"/>
<path d="M7026 14107 c3 -10 9 -15 12 -12 3 3 0 11 -7 18 -10 9 -11 8 -5 -6z"/>
<path d="M7274 14098 c-10 -12 -14 -18 -7 -15 6 4 13 4 16 0 2 -5 3 -3 1 3 -1
6 3 17 9 23 6 6 9 11 6 11 -3 0 -14 -10 -25 -22z"/>
<path d="M7300 14082 c0 -12 19 -26 26 -19 2 2 -2 10 -11 17 -9 8 -15 8 -15 2z"/>
<path d="M6937 14060 c-3 -11 1 -21 10 -24 8 -3 12 -2 8 3 -3 5 -1 11 4 13 5
1 3 8 -4 15 -10 9 -14 8 -18 -7z"/>
<path d="M7455 14071 c-3 -5 -2 -12 3 -15 5 -3 9 1 9 9 0 17 -3 19 -12 6z"/>
<path d="M7687 14059 c-9 -6 -15 -14 -12 -19 3 -4 -3 -6 -13 -3 -9 2 -30 -3
-46 -11 -27 -13 -33 -13 -67 5 -39 19 -66 26 -40 10 9 -6 11 -15 6 -27 -5 -11
-7 -23 -6 -28 1 -4 -4 -15 -11 -24 -11 -13 -11 -15 2 -8 8 4 4 -1 -9 -12 -20
-16 -21 -20 -7 -25 9 -4 16 -11 16 -17 0 -6 -6 -8 -12 -4 -9 5 -9 2 1 -9 14
-17 67 -25 57 -8 -4 5 -3 16 0 25 5 13 9 14 20 5 8 -6 14 -8 14 -5 0 4 9 2 19
-3 14 -8 22 -7 31 4 10 12 10 15 -1 15 -11 0 -11 2 -1 8 10 7 8 15 -9 36 l-22
28 31 -16 c20 -10 32 -12 32 -6 0 6 5 8 12 4 8 -5 9 -2 5 9 -6 16 -4 16 24 1
17 -8 34 -12 37 -8 4 4 1 9 -5 11 -7 3 -13 9 -13 14 0 4 6 6 13 3 8 -3 20 2
27 11 11 13 9 15 -11 16 -21 1 -20 2 6 9 l30 8 -32 1 c-18 0 -33 -4 -33 -10 0
-5 -5 -7 -11 -4 -6 4 -8 13 -5 21 6 16 6 16 -17 3z m-127 -51 c0 -6 -6 -8 -14
-5 -7 3 -19 0 -26 -6 -9 -9 -9 -6 1 10 12 20 39 21 39 1z m51 -95 c13 -16 12
-17 -3 -4 -17 13 -22 21 -14 21 2 0 10 -8 17 -17z"/>
<path d="M8114 13979 c-3 -6 -1 -16 4 -21 8 -8 11 -5 9 11 -1 24 -3 25 -13 10z"/>
<path d="M7850 13950 c0 -6 7 -10 15 -10 8 0 15 2 15 4 0 2 -7 6 -15 10 -8 3
-15 1 -15 -4z"/>
<path d="M8137 13943 c-3 -5 -2 -15 2 -22 5 -7 11 -9 14 -4 3 5 2 15 -2 22 -5
7 -11 9 -14 4z"/>
<path d="M7836 13915 c-3 -9 1 -18 9 -21 8 -4 15 -16 16 -28 0 -20 1 -20 8 -2
7 19 -7 66 -20 66 -4 0 -10 -7 -13 -15z"/>
<path d="M7115 13900 c-10 -11 -13 -20 -7 -20 7 0 12 5 12 10 0 6 5 9 11 8 6
-2 14 3 16 10 7 19 -12 14 -32 -8z"/>
<path d="M7169 13913 c-1 -5 -1 -12 0 -17 1 -5 -3 -12 -10 -16 -6 -4 -8 -13
-4 -20 6 -9 9 -9 16 1 7 12 12 12 30 1 17 -11 24 -11 45 3 13 8 24 21 24 28 0
6 -5 4 -11 -6 -10 -16 -12 -16 -40 8 -31 25 -48 31 -50 18z m46 -23 c3 -5 1
-10 -4 -10 -6 0 -11 5 -11 10 0 6 2 10 4 10 3 0 8 -4 11 -10z"/>
<path d="M7725 13909 c-4 -6 -5 -12 -2 -15 2 -3 7 2 10 11 7 17 1 20 -8 4z"/>
<path d="M7035 13880 c-3 -5 -1 -10 4 -10 6 0 11 5 11 10 0 6 -2 10 -4 10 -3
0 -8 -4 -11 -10z"/>
<path d="M7951 13868 c-5 -13 -7 -26 -4 -30 2 -5 -1 -8 -7 -8 -6 0 -8 -5 -5
-11 4 -6 13 -8 20 -5 8 3 18 -1 24 -8 9 -10 6 -15 -10 -19 -12 -3 -18 -10 -14
-16 3 -6 11 -8 17 -5 8 5 9 1 4 -11 -6 -16 -4 -16 10 -4 15 12 16 11 9 -10 -5
-16 -4 -21 4 -17 6 4 11 14 11 22 0 8 4 13 8 10 19 -11 3 49 -16 62 -14 9 -22
25 -22 43 0 34 -17 38 -29 7z"/>
<path d="M7275 13871 c-3 -5 -2 -12 3 -15 5 -3 9 1 9 9 0 17 -3 19 -12 6z"/>
<path d="M7473 13855 c7 -14 20 -25 30 -25 24 0 22 5 -12 29 l-29 21 11 -25z"/>
<path d="M9665 13869 c-11 -16 -1 -19 13 -3 7 8 8 14 3 14 -5 0 -13 -5 -16
-11z"/>
<path d="M7078 13852 c-28 -6 -28 -29 3 -63 16 -18 29 -36 29 -40 0 -10 60
-33 67 -25 3 3 1 6 -7 6 -10 0 -10 4 1 17 10 11 10 14 2 9 -7 -4 -13 -2 -13 3
0 10 13 14 26 9 7 -4 33 42 34 58 0 8 -11 9 -35 4 -20 -5 -33 -4 -29 1 4 8
-17 12 -42 8 -4 0 -10 3 -13 8 -3 5 -13 7 -23 5z m82 -62 c0 -5 -9 -6 -20 -3
-20 5 -25 15 -13 26 7 8 33 -11 33 -23z"/>
<path d="M7240 13846 c0 -2 7 -7 16 -10 8 -3 12 -2 9 4 -6 10 -25 14 -25 6z"/>
<path d="M6706 13811 c-4 -7 -5 -15 -2 -18 9 -9 19 4 14 18 -4 11 -6 11 -12 0z"/>
<path d="M6767 13805 c-22 -16 -22 -34 1 -52 12 -10 14 -16 5 -19 -20 -8 -15
-33 5 -29 9 2 19 4 22 4 3 1 -1 5 -8 10 -11 7 -11 11 1 22 7 8 12 20 9 28 -3
8 0 11 7 7 16 -10 14 -2 -7 21 -15 18 -20 19 -35 8z m13 -35 c6 -11 8 -20 6
-20 -3 0 -10 9 -16 20 -6 11 -8 20 -6 20 3 0 10 -9 16 -20z"/>
<path d="M7440 13795 c-6 -8 -17 -12 -25 -9 -20 8 -29 -15 -13 -34 12 -15 11
-16 -4 -4 -10 8 -19 9 -22 3 -13 -21 -96 9 -96 35 0 8 -4 12 -10 9 -5 -3 -10
-15 -10 -26 0 -12 -4 -17 -11 -14 -6 4 -10 1 -8 -6 4 -35 -2 -48 -21 -44 -11
2 -20 -1 -20 -6 0 -6 -6 -7 -12 -3 -7 4 10 -16 37 -45 42 -43 54 -51 75 -46
14 4 27 11 31 16 3 6 22 8 43 6 28 -3 36 -1 32 9 -3 7 1 26 9 41 10 19 15 23
15 10 0 -15 3 -15 20 -5 14 9 16 14 7 20 -7 4 -7 8 -2 8 6 0 3 5 -5 10 -13 8
-13 10 1 10 17 0 49 30 49 46 0 5 -11 14 -25 20 -19 9 -27 9 -35 -1z m-140
-85 c-8 -5 -11 -10 -7 -10 4 0 3 -8 -2 -18 -7 -13 -7 -22 1 -30 8 -8 5 -9 -11
-5 -11 3 -21 7 -21 10 0 15 33 63 43 63 8 0 7 -4 -3 -10z"/>
<path d="M7650 13795 c0 -8 2 -15 4 -15 2 0 6 7 10 15 3 8 1 15 -4 15 -6 0
-10 -7 -10 -15z"/>
<path d="M6705 13750 c3 -5 10 -10 16 -10 5 0 9 5 9 10 0 6 -7 10 -16 10 -8 0
-12 -4 -9 -10z"/>
<path d="M7799 13739 c0 -21 -1 -22 -8 -5 -7 19 -8 19 -13 -1 -4 -16 -1 -20
11 -18 9 2 19 4 23 4 8 1 4 28 -5 37 -4 4 -7 -4 -8 -17z"/>
<path d="M9525 13680 c-18 -8 -18 -9 -2 -9 15 -1 16 -5 7 -21 -6 -11 -7 -20
-1 -20 9 0 21 22 27 48 3 14 -3 14 -31 2z"/>
<path d="M9570 13664 c0 -8 5 -12 10 -9 6 4 8 11 5 16 -9 14 -15 11 -15 -7z"/>
<path d="M7433 13638 c-21 -28 -24 -38 -10 -38 8 0 17 10 20 22 7 27 3 33 -10
16z"/>
<path d="M6965 13589 c6 -29 13 -35 27 -21 8 8 8 15 -2 27 -18 21 -30 19 -25
-6z"/>
<path d="M6696 13584 c-7 -18 0 -34 16 -34 7 0 7 4 -1 13 -8 10 -7 17 1 25 8
8 9 12 1 12 -6 0 -14 -7 -17 -16z"/>
<path d="M7537 13587 c-11 -29 -9 -53 4 -40 6 6 9 21 7 34 -3 21 -4 22 -11 6z"/>
<path d="M7402 13581 c-11 -6 -10 -10 4 -15 20 -8 32 0 18 14 -5 5 -15 5 -22
1z"/>
<path d="M7519 13521 c20 -13 7 -39 -29 -59 -27 -15 -35 -30 -31 -56 1 -4 -5
-13 -12 -20 -17 -13 -30 -46 -19 -46 4 0 14 9 22 20 10 14 16 16 22 7 6 -9 8
-9 8 1 0 7 4 11 9 7 6 -3 17 10 27 30 18 39 30 44 37 18 3 -10 5 3 6 28 1 44
-19 79 -45 79 -5 0 -3 -4 5 -9z"/>
<path d="M1289 13379 l-136 -123 116 -99 c64 -54 131 -110 149 -124 l32 -25
77 68 c42 38 102 93 133 121 l55 53 -140 -64 -140 -64 -5 190 -5 191 -136
-124z"/>
<path d="M7406 13451 c-3 -5 1 -12 10 -15 8 -3 13 -2 9 3 -3 5 1 12 7 14 8 4
7 6 -4 6 -9 1 -19 -3 -22 -8z"/>
<path d="M7360 13349 c0 -15 -5 -19 -16 -15 -8 3 -13 2 -9 -3 3 -5 -1 -12 -7
-14 -10 -4 -10 -6 0 -6 6 -1 12 -8 12 -16 0 -12 4 -13 19 -6 14 8 19 21 18 46
-1 37 -17 50 -17 14z m5 -38 c-3 -6 -11 -8 -17 -5 -6 4 -5 9 3 15 16 10 23 4
14 -10z"/>
<path d="M6980 13317 c0 -2 15 -16 33 -33 l32 -29 -29 33 c-28 30 -36 37 -36
29z"/>
<path d="M7305 13280 c-16 -7 -17 -9 -3 -9 9 -1 20 4 23 9 7 11 7 11 -20 0z"/>
<path d="M7342 13244 c-10 -11 -9 -17 8 -34 18 -18 20 -18 19 -2 0 9 -3 24 -7
33 -6 14 -9 15 -20 3z"/>
<path d="M7258 13223 c-27 -15 -48 -30 -48 -35 0 -11 18 -10 25 2 4 6 11 8 16
4 5 -3 6 -10 3 -16 -4 -6 -2 -8 4 -4 6 3 13 2 17 -4 12 -19 25 -10 21 15 -4
22 -2 24 14 15 24 -13 40 -13 40 1 0 6 -7 8 -16 5 -8 -3 -13 -2 -10 3 3 4 0
15 -7 24 -11 15 -17 14 -59 -10z"/>
<path d="M7120 13185 c13 -14 26 -25 28 -25 3 0 -5 11 -18 25 -13 14 -26 25
-28 25 -3 0 5 -11 18 -25z"/>
<path d="M7347 13146 c-10 -8 -14 -16 -10 -19 5 -3 14 3 21 14 14 22 13 23
-11 5z"/>
<path d="M7210 13107 c0 -2 15 -16 33 -33 l32 -29 -29 33 c-28 30 -36 37 -36
29z"/>
<path d="M10910 12985 c-11 -13 -10 -14 4 -9 9 3 16 10 16 15 0 13 -6 11 -20
-6z"/>
<path d="M7270 12953 c0 -21 3 -24 9 -14 5 8 7 20 4 28 -8 21 -13 15 -13 -14z"/>
<path d="M7365 12910 c3 -5 8 -10 11 -10 2 0 4 5 4 10 0 6 -5 10 -11 10 -5 0
-7 -4 -4 -10z"/>
<path d="M7388 12873 c-10 -2 -18 -12 -18 -20 0 -14 3 -14 20 2 17 15 26 28
18 24 -2 -1 -11 -3 -20 -6z"/>
<path d="M7356 12714 c-10 -25 1 -29 14 -5 6 12 7 21 1 21 -5 0 -12 -7 -15
-16z"/>
<path d="M7138 12467 l-158 -82 0 -53 c0 -30 4 -52 9 -50 11 4 311 259 311
264 0 6 7 9 -162 -79z"/>
<path d="M7161 12371 c-9 -6 -10 -11 -2 -15 6 -4 11 -2 11 4 0 6 5 8 12 4 7
-4 8 -3 4 4 -8 14 -7 14 -25 3z"/>
<path d="M8986 12224 c-3 -9 -6 -28 -6 -42 0 -42 -11 -72 -26 -72 -8 0 -14 4
-14 9 0 5 -9 7 -20 4 -22 -6 -23 -5 65 -82 41 -36 64 -49 77 -45 10 3 18 1 18
-4 0 -6 -5 -12 -10 -14 -6 -2 5 -19 25 -38 35 -34 35 -34 36 -9 1 13 1 27 0
32 0 4 5 7 12 7 15 1 -19 21 -41 25 -10 1 -16 10 -16 19 2 20 -12 21 -20 1 -3
-8 -11 -15 -18 -14 -10 0 -10 2 0 6 17 7 15 24 -4 38 -28 20 -9 55 30 55 19 0
39 7 46 15 10 12 9 15 -4 15 -10 0 -14 4 -11 10 3 6 -1 7 -9 4 -9 -3 -16 -2
-16 4 0 5 -12 7 -26 4 -26 -5 -26 -4 -10 20 15 23 15 25 -9 46 -30 26 -41 27
-49 6z m64 -28 c0 -2 -7 -7 -16 -10 -8 -3 -12 -2 -9 4 6 10 25 14 25 6z"/>
<path d="M8883 12143 c0 -9 4 -10 14 -2 7 6 13 12 13 14 0 1 -6 2 -13 2 -8 0
-14 -6 -14 -14z"/>
<path d="M9179 12055 c-1 -5 -1 -13 0 -17 0 -5 -8 -8 -19 -8 -12 0 -20 -7 -20
-17 0 -14 2 -15 9 -4 6 10 17 11 37 6 16 -5 32 -9 36 -9 3 -1 10 -4 14 -8 4
-5 14 -8 23 -8 12 0 11 3 -4 14 -17 13 -17 14 -1 23 16 9 16 11 2 16 -9 4 -16
2 -16 -4 0 -6 -4 -7 -10 -4 -5 3 -10 1 -10 -6 0 -6 -9 -1 -20 12 -10 13 -20
20 -21 14z"/>
<path d="M9705 11989 c-61 -33 -119 -64 -130 -69 -20 -8 -21 -15 -18 -156 2
-81 4 -149 6 -150 2 -3 111 83 191 151 l47 40 8 120 c4 66 7 121 6 122 0 1
-50 -25 -110 -58z"/>
<path d="M9370 11970 c0 -5 5 -9 11 -7 6 1 13 -8 15 -21 3 -15 0 -21 -7 -16
-8 4 -9 -1 -5 -17 7 -23 7 -23 -8 -5 -9 11 -16 15 -16 10 0 -6 5 -15 11 -21
12 -12 4 -33 -13 -33 -5 0 -8 7 -5 14 4 11 1 13 -10 9 -12 -5 -14 -3 -8 7 5 9
4 11 -4 6 -6 -4 -9 -11 -6 -16 3 -5 0 -12 -7 -16 -8 -5 0 -13 25 -24 36 -16
40 -16 83 3 29 14 41 24 34 31 -5 5 -10 22 -10 36 0 19 -8 30 -25 38 -14 6
-25 16 -25 22 0 5 -7 10 -15 10 -8 0 -15 -4 -15 -10z m31 -87 c-12 -20 -14
-14 -5 12 4 9 9 14 11 11 3 -2 0 -13 -6 -23z m10 -26 c-10 -9 -11 -8 -5 6 3
10 9 15 12 12 3 -3 0 -11 -7 -18z"/>
<path d="M9280 11924 c0 -8 -4 -12 -10 -9 -5 3 -10 2 -10 -4 0 -5 -3 -16 -6
-24 -3 -9 3 -16 15 -20 19 -4 21 -1 21 34 0 21 -2 39 -5 39 -3 0 -5 -7 -5 -16z"/>
<path d="M7481 11620 c29 -45 29 -45 29 -34 0 5 -12 23 -26 39 l-26 30 23 -35z"/>
<path d="M8006 11548 c54 -41 59 -42 30 -10 -17 18 -36 32 -44 32 -8 0 -2 -9
14 -22z"/>
<path d="M7690 11468 c-98 -52 -111 -61 -85 -54 11 3 59 7 108 8 65 1 87 5 87
15 0 7 5 13 11 13 6 0 1 14 -11 30 -12 17 -24 30 -28 29 -4 0 -41 -19 -82 -41z"/>
<path d="M7622 10840 c11 -44 23 -80 27 -80 11 0 11 39 0 45 -5 4 -9 25 -9 48
0 44 -7 61 -26 64 -8 1 -5 -25 8 -77z"/>
<path d="M7383 10723 c9 -2 23 -2 30 0 6 3 -1 5 -18 5 -16 0 -22 -2 -12 -5z"/>
<path d="M7468 10723 c12 -2 30 -2 40 0 9 3 -1 5 -23 4 -22 0 -30 -2 -17 -4z"/>
<path d="M7660 10666 c0 -2 8 -10 18 -17 15 -13 16 -12 3 4 -13 16 -21 21 -21
13z"/>
<path d="M7975 10624 l-80 -45 105 5 c58 3 106 6 108 6 5 0 -43 80 -48 80 -3
0 -41 -21 -85 -46z"/>
<path d="M7980 10530 c0 -5 14 -10 30 -10 17 0 30 5 30 10 0 6 -13 10 -30 10
-16 0 -30 -4 -30 -10z"/>
<path d="M8075 10134 c39 -37 69 -71 67 -76 -1 -5 2 -6 8 -3 7 4 22 -3 36 -16
l24 -22 0 57 c0 41 -4 58 -15 62 -8 4 -12 11 -8 18 3 6 3 8 -2 4 -9 -8 -65 22
-65 34 0 4 -5 8 -11 8 -7 0 -10 -14 -7 -35 5 -40 4 -40 -14 -22 -7 6 -29 22
-48 35 -21 14 -6 -4 35 -44z"/>
<path d="M356 9465 c-5 -22 -11 -170 -15 -330 l-6 -289 -165 -86 -165 -85 -3
-1222 -2 -1223 30 0 c25 0 60 25 179 126 197 167 227 184 330 184 l79 0 84 70
c73 62 88 70 125 70 40 0 55 11 340 252 164 138 299 252 300 252 1 1 8 82 15
181 18 242 1 638 -33 758 -12 43 -26 80 -30 83 -10 6 -10 16 -18 -334 l-6
-274 -160 -88 -160 -89 -5 437 c-3 240 -7 426 -9 412 -2 -14 -7 -153 -10 -309
l-6 -284 -164 -89 c-90 -49 -167 -88 -171 -86 -5 2 -83 61 -174 131 l-166 128
0 223 0 223 168 88 c92 48 170 92 173 98 8 12 22 167 16 173 -3 3 -76 -33
-163 -79 -88 -47 -160 -84 -162 -83 -1 2 4 59 12 127 9 91 11 157 4 249 -5 68
-8 148 -6 178 l3 54 165 -131 165 -130 7 32 c4 18 8 56 9 86 l3 54 -153 88
c-111 65 -161 89 -187 89 -30 0 -34 3 -35 28 0 15 -6 106 -13 202 -9 141 -13
167 -20 135z m37 -1984 c174 -134 317 -247 317 -251 0 -11 -318 -182 -330
-178 -5 2 -83 59 -174 128 l-165 125 -1 223 c0 213 1 223 18 210 10 -7 161
-123 335 -257z"/>
<path d="M3960 9389 c-36 -17 -79 -37 -97 -46 -17 -8 -38 -15 -46 -17 -8 -1
-25 -9 -38 -17 -22 -15 -54 -25 -105 -33 -12 -2 -33 -12 -48 -21 -16 -10 -38
-16 -56 -13 -16 3 -30 2 -30 -2 0 -4 -19 -13 -42 -21 -50 -16 -66 -29 -60 -47
4 -14 -25 -39 -70 -59 -21 -9 -28 -9 -32 3 -3 8 -1 14 4 14 6 0 10 4 10 8 0 5
-13 7 -30 4 -17 -2 -30 -10 -30 -18 0 -8 -5 -14 -11 -14 -6 0 -8 8 -5 18 5 13
-1 22 -20 30 -22 11 -30 9 -55 -9 -27 -19 -29 -23 -16 -38 8 -9 12 -22 10 -28
-3 -7 0 -13 6 -13 6 0 11 7 11 15 0 8 5 15 11 15 6 0 9 -7 5 -15 -3 -8 -2 -15
2 -15 4 0 8 -12 7 -27 0 -18 -6 -27 -14 -25 -9 2 -12 -4 -8 -18 5 -21 -7 -28
-18 -10 -8 13 -25 13 -25 -1 0 -5 6 -7 13 -3 10 6 10 4 0 -7 -10 -9 -16 -10
-24 -2 -13 13 -42 6 -33 -8 3 -5 -4 -9 -15 -9 -11 0 -23 -5 -26 -10 -4 -6 -11
-8 -16 -5 -13 9 -11 -19 2 -32 8 -8 5 -14 -12 -23 -20 -10 -22 -10 -11 1 20
21 14 27 -24 27 l-35 0 3 -74 c2 -41 0 -74 -3 -74 -7 0 -3 -60 5 -68 4 -3 9 4
13 16 3 12 9 22 13 22 12 0 22 -34 12 -38 -6 -2 1 -14 14 -27 14 -14 21 -30
18 -39 -5 -12 0 -16 19 -16 14 0 29 -4 32 -10 3 -5 15 -10 26 -10 11 0 17 5
14 10 -3 6 1 10 10 10 14 0 15 8 9 48 -7 53 -21 75 -40 68 -7 -3 -16 0 -20 7
-4 7 -4 9 1 5 4 -4 14 -3 22 4 7 6 30 11 51 12 30 1 36 5 34 19 -3 17 -2 17
19 0 12 -10 30 -26 41 -35 24 -24 23 -14 -2 20 -12 16 -18 35 -15 43 6 16 55
24 55 9 0 -5 -6 -8 -12 -6 -7 1 -9 1 -5 -2 4 -2 0 -10 -10 -17 -16 -12 -15
-13 8 -12 17 1 25 7 22 15 -4 8 1 10 13 5 18 -7 18 -6 2 11 -24 23 -23 31 7
44 32 15 57 15 32 1 -14 -8 -16 -14 -6 -25 9 -11 15 -11 25 -3 10 8 19 7 35
-4 21 -15 48 -12 60 6 3 5 9 1 12 -8 4 -9 3 -13 -3 -10 -6 4 -7 -1 -3 -12 12
-36 18 -37 23 -8 4 17 2 36 -3 43 -7 8 -4 18 7 30 17 20 21 42 8 42 -5 0 -8
29 -7 65 0 50 6 71 23 95 13 17 20 35 17 40 -4 6 8 10 27 10 18 0 52 9 75 19
23 11 44 17 47 13 3 -3 6 -1 6 5 0 6 14 16 30 22 17 5 30 15 30 20 0 6 10 12
23 12 19 1 18 2 -5 8 l-28 6 25 12 c14 6 23 7 19 2 -6 -10 11 -11 43 -3 26 7
39 34 17 34 -8 0 -13 -4 -10 -8 2 -4 -5 -9 -16 -9 l-21 -2 21 14 c33 24 71 35
77 25 4 -6 -2 -10 -11 -10 -16 0 -16 -1 2 -14 20 -15 39 -2 27 18 -3 5 -1 6 5
2 6 -4 24 0 39 8 16 8 22 15 15 16 -7 0 -11 4 -8 9 4 5 0 12 -6 14 -7 3 -1 6
15 6 15 1 27 -4 27 -11 0 -9 3 -9 9 1 5 8 16 11 24 8 20 -8 82 10 100 28 8 8
17 11 20 8 4 -3 20 6 37 21 l32 26 -114 0 c-105 -1 -118 -3 -178 -31z m-887
-684 c-3 -9 -8 -14 -10 -11 -3 3 -2 9 2 15 9 16 15 13 8 -4z"/>
<path d="M4356 9406 c5 -13 4 -17 -3 -13 -6 4 -13 0 -17 -8 -3 -9 0 -15 10
-15 20 0 30 28 15 43 -9 9 -11 8 -5 -7z"/>
<path d="M4410 9401 c12 -24 1 -58 -29 -85 -11 -11 -21 -25 -21 -33 0 -8 -6
-13 -12 -12 -27 3 -40 -1 -36 -13 2 -6 12 -12 21 -14 9 -1 15 1 13 5 -2 3 7
12 20 18 22 10 27 8 46 -17 19 -27 57 -52 43 -30 -9 15 4 12 21 -4 12 -13 12
-16 -1 -24 -14 -7 -12 -12 11 -36 19 -18 22 -25 9 -20 -13 5 -16 3 -13 -7 3
-8 -1 -22 -10 -31 -14 -16 -13 -18 1 -18 10 0 17 5 17 11 0 5 5 7 11 4 6 -4 8
-14 5 -22 -3 -8 -1 -11 4 -8 6 3 10 13 10 21 0 8 10 14 23 14 25 1 57 22 57
38 0 6 6 13 13 16 6 4 2 4 -10 2 -24 -4 -32 9 -11 16 9 3 9 6 0 12 -7 4 -12 2
-12 -3 0 -6 -7 -11 -15 -11 -20 0 -19 -10 2 -25 14 -10 11 -11 -14 -8 -25 4
-30 9 -26 26 4 18 3 19 -6 7 -9 -12 -11 -11 -12 10 -3 46 3 95 13 107 5 7 6
18 2 25 -5 10 -4 10 5 2 8 -8 22 -8 47 0 28 9 34 15 30 31 -3 11 -6 32 -6 48
l0 27 -100 0 c-96 0 -100 -1 -90 -19z m135 -281 c-3 -5 -11 -10 -16 -10 -6 0
-7 5 -4 10 3 6 11 10 16 10 6 0 7 -4 4 -10z"/>
<path d="M8328 9327 c-26 -18 -61 -40 -78 -49 -26 -15 -30 -21 -24 -45 4 -15
12 -34 19 -42 16 -16 68 -18 73 -2 2 6 9 8 15 5 8 -5 8 -2 0 7 -7 7 -13 21
-13 31 0 10 6 18 13 18 8 0 8 3 -2 9 -11 7 -8 15 16 38 27 26 32 28 41 14 8
-12 8 -7 1 17 -6 17 -12 32 -12 31 -1 -1 -23 -15 -49 -32z"/>
<path d="M4648 9223 c7 -3 16 -2 19 1 4 3 -2 6 -13 5 -11 0 -14 -3 -6 -6z"/>
<path d="M4613 9190 c1 -14 4 -16 14 -8 16 13 16 15 -1 21 -10 4 -14 0 -13
-13z"/>
<path d="M3915 9173 c2 -10 4 -20 4 -22 2 -8 31 22 31 33 0 6 -5 4 -10 -4 -6
-10 -10 -11 -10 -2 0 6 -4 12 -9 12 -5 0 -8 -8 -6 -17z"/>
<path d="M4872 9043 l3 -146 -129 -71 -128 -71 123 -3 124 -3 75 38 c41 21 77
41 80 44 3 3 33 21 67 39 l62 34 0 91 c0 49 -3 114 -6 143 l-5 52 -135 0 -134
0 3 -147z"/>
<path d="M3395 9170 c-3 -6 1 -7 9 -4 18 7 21 14 7 14 -6 0 -13 -4 -16 -10z"/>
<path d="M4190 9155 c0 -8 4 -15 10 -15 5 0 7 7 4 15 -4 8 -8 15 -10 15 -2 0
-4 -7 -4 -15z"/>
<path d="M3780 9156 c0 -2 7 -7 16 -10 8 -3 12 -2 9 4 -6 10 -25 14 -25 6z"/>
<path d="M7900 9060 c0 -5 5 -10 11 -10 5 0 7 5 4 10 -3 6 -8 10 -11 10 -2 0
-4 -4 -4 -10z"/>
<path d="M3796 9012 c-3 -5 1 -9 9 -9 8 0 12 4 9 9 -3 4 -7 8 -9 8 -2 0 -6 -4
-9 -8z"/>
<path d="M3840 8998 c-11 -10 -25 -18 -32 -18 -8 0 -9 -3 -2 -10 5 -5 20 -7
33 -3 14 4 18 8 11 13 -8 5 -7 9 4 13 10 4 16 1 16 -8 0 -27 35 -17 38 10 1
21 -2 24 -24 23 -14 -1 -34 -10 -44 -20z"/>
<path d="M3750 8948 c0 -4 0 -11 0 -15 0 -5 9 -9 20 -9 11 -1 20 3 20 7 0 5
-5 9 -11 9 -5 0 -8 4 -5 8 3 5 -1 9 -9 9 -8 0 -15 -4 -15 -9z"/>
<path d="M3795 8942 c3 -8 5 -17 5 -20 0 -4 5 0 10 8 8 12 10 10 10 -9 0 -13
3 -21 8 -17 7 7 8 11 11 39 1 8 4 7 11 -3 9 -13 10 -13 10 0 0 13 1 13 11 0 9
-13 10 -13 7 0 -3 9 -18 14 -46 15 -31 0 -41 -4 -37 -13z"/>
<path d="M4430 8906 c0 -2 7 -7 16 -10 8 -3 12 -2 9 4 -6 10 -25 14 -25 6z"/>
<path d="M4346 8865 c-23 -17 -40 -20 -31 -5 11 17 -48 0 -63 -19 -8 -10 -10
-27 -6 -46 4 -16 7 -38 6 -48 0 -10 6 -21 14 -24 11 -4 12 -9 3 -19 -6 -8 -9
-21 -5 -29 3 -9 0 -15 -10 -15 -8 0 -13 3 -10 8 2 4 -6 12 -18 18 -20 9 -24 7
-35 -17 -6 -15 -19 -26 -28 -25 -10 0 -19 -7 -21 -18 -2 -11 0 -16 7 -12 7 4
11 -1 11 -13 0 -11 5 -23 12 -27 7 -5 8 -3 3 6 -6 10 -4 12 9 7 10 -4 22 -7
27 -7 5 0 8 -5 7 -11 -6 -23 22 -20 45 5 16 18 30 23 45 19 15 -3 22 -1 22 8
-1 17 -25 51 -32 43 -8 -8 -108 -43 -108 -38 0 6 69 35 73 32 1 -2 10 4 19 12
16 15 14 35 -3 25 -5 -4 -9 -2 -9 4 0 26 20 17 45 -22 15 -23 36 -52 47 -64
11 -12 17 -26 14 -32 -4 -7 -1 -8 8 -5 9 3 16 1 16 -5 0 -6 10 -11 23 -11 13
0 29 -6 36 -12 11 -10 14 -10 18 0 3 6 13 12 24 12 25 0 24 6 -11 50 -28 35
-42 78 -21 65 5 -3 11 3 14 12 3 14 6 11 11 -9 9 -31 21 -36 30 -13 3 8 -1 21
-9 29 -24 23 -18 46 10 46 35 0 31 13 -12 51 -21 17 -33 29 -28 26 13 -7 105
37 116 54 15 25 -2 28 -47 8 -42 -19 -47 -19 -63 -5 -22 20 -49 22 -32 3 8
-11 5 -16 -15 -25 -35 -16 -67 -15 -90 4 -10 8 -13 12 -5 8 9 -5 12 -3 7 4 -4
7 -1 12 8 12 9 0 16 5 16 10 0 14 -11 12 -34 -5z m9 -105 c-8 -25 -39 -23 -41
3 -1 12 -1 13 3 2 6 -21 25 -19 22 3 -3 29 1 36 12 25 6 -6 8 -21 4 -33z"/>
<path d="M4540 8796 c0 -8 5 -18 10 -21 6 -3 10 3 10 14 0 12 -4 21 -10 21 -5
0 -10 -6 -10 -14z"/>
<path d="M4000 8760 c0 -8 -9 -21 -19 -27 -11 -7 -19 -21 -18 -32 1 -11 3 -18
5 -16 6 6 31 -19 26 -26 -2 -4 3 -10 11 -13 20 -7 31 20 17 37 -6 7 -9 23 -6
34 3 12 1 30 -5 40 -8 14 -10 14 -11 3z"/>
<path d="M3282 8661 c-11 -6 -9 -9 6 -13 15 -4 19 -2 15 8 -6 16 -4 16 -21 5z"/>
<path d="M3810 8650 c-13 -9 -7 -14 13 -11 12 2 8 -6 -25 -43 -17 -19 -35 -33
-40 -30 -15 10 -8 24 17 34 26 10 32 24 14 35 -5 4 -19 -1 -31 -12 -11 -10
-22 -16 -23 -13 -8 12 -102 -54 -114 -81 -10 -24 -17 -28 -37 -23 -14 4 -24 2
-24 -4 0 -36 57 -18 99 31 17 19 30 26 44 21 12 -4 17 -2 13 4 -3 5 1 12 9 15
23 9 7 -20 -22 -38 -14 -10 -22 -12 -19 -6 4 6 4 11 -1 11 -11 0 -37 -60 -29
-67 3 -4 6 0 6 8 0 15 39 19 187 23 22 1 40 3 38 6 -2 3 3 11 11 18 8 7 14 9
14 5 0 -4 4 -1 9 7 11 16 5 30 -11 30 -6 0 -9 -3 -5 -6 3 -4 0 -13 -8 -20 -24
-24 -26 -15 -5 26 11 21 20 43 20 48 0 8 -63 42 -78 42 -4 0 -14 -5 -22 -10z
m31 -57 c13 -16 12 -17 -3 -4 -17 13 -22 21 -14 21 2 0 10 -8 17 -17z"/>
<path d="M3933 8623 c-17 -37 -16 -43 7 -43 11 0 20 7 20 15 0 15 12 20 23 9
3 -3 -3 -15 -14 -27 -10 -11 -19 -26 -18 -31 0 -6 3 -5 6 2 2 6 9 12 14 12 4
0 6 -7 3 -15 -4 -8 -1 -15 5 -15 11 0 15 13 12 37 -1 6 3 14 9 18 5 3 10 -2
10 -12 0 -15 2 -16 10 -3 8 12 11 13 19 1 6 -10 10 -10 16 -1 8 14 -20 47 -57
66 -39 20 -51 17 -65 -13z"/>
<path d="M1097 8630 c-3 -8 -8 -44 -11 -80 -5 -65 -5 -66 29 -93 42 -34 45
-34 45 1 0 37 -57 191 -63 172z"/>
<path d="M3026 8611 c-7 -11 22 -36 31 -27 3 3 1 6 -6 6 -8 0 -11 7 -7 15 6
16 -9 21 -18 6z"/>
<path d="M3080 8600 c-16 -11 -15 -11 18 -15 18 -2 20 0 11 11 -13 16 -10 16
-29 4z"/>
<path d="M2981 8574 c0 -11 3 -14 6 -6 3 7 2 16 -1 19 -3 4 -6 -2 -5 -13z"/>
<path d="M3116 8555 c-3 -9 0 -15 9 -15 9 0 12 6 9 15 -4 8 -7 15 -9 15 -2 0
-5 -7 -9 -15z"/>
<path d="M3195 8512 c2 -3 -5 -12 -17 -22 -12 -9 -17 -19 -12 -21 5 -3 22 8
37 23 25 24 26 27 8 25 -11 -1 -18 -3 -16 -5z"/>
<path d="M3013 8491 c-33 -14 -33 -16 -33 -83 l0 -69 31 23 c17 13 41 22 54
20 29 -4 61 39 50 65 -5 10 -7 21 -7 26 2 9 -1 9 -33 -3 -33 -13 -53 -3 -29
14 26 19 3 24 -33 7z m-1 -28 c-6 -2 -9 -10 -6 -15 4 -7 2 -8 -5 -4 -13 9 -5
26 12 25 9 0 8 -2 -1 -6z"/>
<path d="M4300 8499 c0 -5 5 -7 10 -4 6 3 10 8 10 11 0 2 -4 4 -10 4 -5 0 -10
-5 -10 -11z"/>
<path d="M3825 8490 c3 -5 8 -10 11 -10 2 0 4 5 4 10 0 6 -5 10 -11 10 -5 0
-7 -4 -4 -10z"/>
<path d="M3500 8463 c0 -19 3 -20 29 -10 34 12 31 35 -5 33 -17 -1 -24 -7 -24
-23z"/>
<path d="M4267 8473 c-4 -3 -7 -11 -7 -17 0 -6 5 -5 12 2 6 6 9 14 7 17 -3 3
-9 2 -12 -2z"/>
<path d="M3770 8446 c0 -8 5 -18 10 -21 6 -3 10 -1 10 5 0 6 5 8 10 5 6 -3 10
-4 10 -1 0 3 -9 10 -20 16 -16 8 -20 8 -20 -4z"/>
<path d="M4025 8449 c-11 -4 -14 -8 -7 -8 7 -1 10 -5 7 -11 -3 -5 -1 -10 4
-10 6 0 11 5 11 10 0 6 5 10 11 10 5 0 8 -4 4 -9 -3 -5 -2 -12 3 -15 4 -2 8 4
9 14 2 22 -15 30 -42 19z"/>
<path d="M4165 8450 c3 -5 8 -10 11 -10 2 0 4 5 4 10 0 6 -5 10 -11 10 -5 0
-7 -4 -4 -10z"/>
<path d="M3590 8446 c0 -2 7 -7 16 -10 8 -3 12 -2 9 4 -6 10 -25 14 -25 6z"/>
<path d="M4080 8431 c0 -6 4 -13 10 -16 6 -3 7 1 4 9 -7 18 -14 21 -14 7z"/>
<path d="M3418 8379 c-1 -27 2 -55 7 -60 7 -7 7 -10 0 -9 -22 5 -25 -1 -10
-23 14 -22 14 -24 -10 -35 -24 -11 -24 -13 -8 -31 9 -11 21 -17 27 -14 6 3 5
0 -1 -8 -21 -21 -15 -38 10 -32 20 4 20 3 4 -7 -9 -6 -15 -15 -12 -19 2 -5 -3
-8 -13 -7 -9 0 -17 -6 -17 -14 0 -8 -6 -22 -14 -30 -12 -13 -11 -15 10 -21
l24 -7 -26 -1 c-31 -1 -77 -56 -55 -64 19 -8 53 18 38 27 -7 4 -12 13 -12 19
0 7 4 6 10 -3 5 -8 10 -10 11 -5 0 6 4 1 8 -10 5 -12 3 -24 -5 -33 -7 -7 -11
-19 -8 -27 4 -8 1 -15 -6 -15 -7 0 -10 8 -7 20 6 22 -8 28 -16 8 -4 -10 -6
-10 -6 0 -1 6 -6 12 -12 12 -6 0 -8 -7 -5 -16 4 -12 1 -14 -13 -9 -11 3 -22 2
-25 -4 -3 -5 -16 -7 -27 -4 -16 4 -20 2 -17 -8 3 -8 15 -13 28 -11 19 2 21 0
10 -13 -7 -9 -19 -14 -26 -11 -8 3 -13 2 -13 -2 3 -19 -2 -33 -10 -28 -5 3 -7
16 -5 29 4 20 4 20 -5 2 -4 -11 -7 -23 -5 -27 3 -4 0 -9 -6 -13 -5 -3 -10 -1
-10 4 0 6 -7 11 -16 11 -9 0 -12 -5 -8 -12 5 -8 2 -8 -10 1 -15 12 -17 12 -14
0 2 -8 -5 -14 -17 -14 -11 -1 -26 -5 -34 -9 -9 -6 -12 -5 -7 2 3 6 2 13 -4 17
-5 3 -10 0 -10 -7 0 -8 -3 -9 -8 -2 -10 14 -49 12 -49 -3 0 -7 4 -10 8 -8 10
7 39 -5 39 -15 0 -5 -10 -6 -22 -3 -21 5 -22 4 -8 -11 9 -9 27 -17 42 -18 15
-1 24 -6 22 -10 -3 -4 -12 -4 -22 -1 -9 4 -2 -6 17 -22 32 -27 35 -28 60 -13
14 8 25 21 23 29 -3 11 -1 11 9 2 9 -9 6 -17 -16 -35 l-27 -24 36 -27 c24 -19
36 -23 36 -14 0 7 9 23 20 35 11 12 21 25 23 29 1 5 5 7 10 5 4 -1 7 7 7 19 0
11 -4 18 -8 15 -4 -2 -8 6 -8 20 0 16 3 21 10 14 7 -7 16 -4 27 11 8 11 28 22
43 22 21 2 26 6 22 21 -3 10 2 29 11 42 12 19 19 22 29 13 8 -6 11 -16 7 -22
-3 -6 -1 -7 6 -3 6 4 9 11 6 16 -8 13 35 34 75 36 23 1 34 6 32 14 -2 9 4 9
20 -2 13 -9 22 -24 22 -33 -1 -9 1 -14 4 -11 3 3 11 1 19 -5 7 -6 13 -8 14 -3
1 5 4 -2 8 -16 4 -14 13 -24 18 -23 15 3 25 -25 12 -33 -6 -4 -4 -13 7 -25 16
-18 17 -18 58 3 22 11 61 35 86 51 25 18 59 32 77 32 18 1 36 5 40 8 3 4 12 2
19 -4 11 -9 15 -7 20 5 4 10 13 15 21 12 8 -3 12 -2 9 3 -3 5 0 11 8 14 20 8
29 -21 12 -38 -7 -8 -16 -11 -20 -8 -3 4 -6 2 -6 -3 0 -6 -18 -21 -41 -33 -51
-29 -46 -47 15 -44 l46 3 2 -53 c1 -65 1 -64 17 -109 7 -21 10 -42 6 -48 -3
-5 0 -7 8 -4 10 3 17 -4 21 -21 6 -24 10 -26 39 -20 18 4 39 13 48 21 24 22
35 17 46 -20 10 -33 10 -34 -13 -30 -22 4 -24 2 -18 -20 3 -13 1 -27 -5 -30
-6 -4 -11 -2 -11 4 0 6 -11 -1 -25 -16 -17 -18 -30 -24 -42 -20 -21 8 -24 8
-20 0 1 -3 -14 -14 -33 -25 -19 -10 -30 -18 -24 -19 7 0 29 -16 50 -35 l39
-35 230 0 c127 0 308 3 402 7 l173 6 396 325 c217 178 392 328 387 332 -4 5
-17 11 -28 14 -12 3 -9 4 8 2 l27 -3 0 98 0 99 -25 -12 c-14 -6 -25 -15 -25
-20 0 -4 -5 -8 -11 -8 -7 0 -51 -22 -99 -50 -48 -27 -90 -50 -94 -50 -17 0 -4
63 16 80 l22 17 -22 7 c-19 6 -22 15 -22 57 0 27 -2 49 -4 49 -2 0 -61 -33
-132 -73 l-129 -73 -140 114 -140 113 -228 -3 -229 -3 -15 28 c-8 16 -17 26
-21 23 -3 -4 0 -12 6 -18 7 -7 12 -19 12 -27 0 -12 -2 -13 -8 -3 -10 15 -62 0
-62 -18 0 -6 4 -9 9 -6 5 3 22 -4 39 -17 37 -26 346 -281 382 -315 14 -12 44
-37 67 -55 23 -18 43 -35 43 -38 0 -7 -246 -149 -257 -149 -5 1 -66 49 -138
108 -91 76 -131 115 -133 132 -2 13 -14 33 -25 43 -12 10 -17 21 -12 25 13 9
16 42 4 42 -5 0 -11 -10 -14 -23 -6 -22 -65 -55 -65 -36 0 5 -5 9 -11 9 -5 0
-7 -4 -4 -10 3 -5 -1 -10 -10 -10 -9 0 -14 -4 -11 -9 3 -5 -1 -12 -10 -15 -9
-4 -13 -13 -10 -23 5 -15 0 -18 -31 -17 -20 1 -39 6 -41 13 -3 8 -8 9 -16 2
-7 -6 -28 -11 -47 -12 -19 -2 -42 -9 -51 -17 -10 -9 -18 -10 -18 -4 0 6 6 13
13 16 6 3 -15 4 -47 3 -33 -2 -77 -1 -98 3 -22 4 -39 3 -41 -3 -1 -5 -8 3 -15
18 -7 14 -8 24 -3 20 6 -3 9 3 8 14 0 11 -4 18 -8 15 -4 -2 -10 0 -14 6 -3 5
1 10 9 10 11 0 16 10 16 34 0 29 -4 35 -27 41 -24 6 -26 8 -10 16 9 6 21 8 26
5 11 -7 21 18 13 31 -11 15 -51 22 -55 9 -3 -6 -8 1 -12 16 -5 19 -2 32 9 43
8 9 13 22 10 29 -8 22 16 30 30 10 13 -16 15 -15 30 14 9 18 12 32 7 32 -5 0
-12 -8 -14 -17 -3 -12 -5 -8 -6 9 0 14 5 29 12 31 7 3 4 6 -6 6 -10 1 -15 5
-12 11 3 5 0 7 -8 4 -7 -2 -26 0 -40 5 -24 9 -27 8 -27 -9 0 -21 -15 -27 -25
-11 -3 5 0 13 6 17 8 5 8 9 -1 14 -15 9 -52 1 -45 -11 6 -9 -30 -31 -38 -23
-3 3 -19 -2 -35 -12 -29 -16 -31 -16 -48 0 -21 22 -63 38 -80 32 -8 -3 -11 0
-7 10 3 7 1 14 -5 14 -6 0 -12 -23 -14 -51z m42 -9 c0 -5 -2 -10 -4 -10 -3 0
-8 5 -11 10 -3 6 -1 10 4 10 6 0 11 -4 11 -10z m1020 -30 c-8 -5 -19 -10 -25
-10 -5 0 -3 5 5 10 8 5 20 10 25 10 6 0 3 -5 -5 -10z m-1017 -44 c8 5 7 2 -2
-9 -17 -22 -23 -21 -39 4 -12 19 -11 19 8 9 11 -6 26 -8 33 -4z m117 -40 c0
-3 -4 -8 -10 -11 -5 -3 -10 -1 -10 4 0 6 5 11 10 11 6 0 10 -2 10 -4z m95 -96
c-4 -6 -2 -17 5 -24 13 -17 22 -56 12 -56 -4 0 -16 14 -26 30 -14 25 -15 34
-6 45 14 17 24 20 15 5z m-85 -45 c-14 -7 -27 -11 -30 -9 -6 7 22 24 40 23 9
0 5 -6 -10 -14z m190 -16 c0 -5 -5 -7 -10 -4 -6 4 -19 1 -28 -7 -15 -12 -16
-11 -3 5 15 19 41 23 41 6z m-139 -51 c11 -21 11 -22 -4 -9 -10 7 -17 17 -17
22 0 15 9 10 21 -13z m104 12 c-3 -5 -1 -19 5 -30 9 -17 8 -19 -7 -13 -28 10
-33 26 -15 40 21 15 25 16 17 3z m-315 -14 c0 -2 -8 -10 -17 -17 -16 -13 -17
-12 -4 4 13 16 21 21 21 13z m2183 -3 c-7 -2 -21 -2 -30 0 -10 3 -4 5 12 5 17
0 24 -2 18 -5z m-2116 -19 c-3 -3 -12 -4 -19 -1 -8 3 -5 6 6 6 11 1 17 -2 13
-5z m107 -3 c3 -5 18 -8 33 -8 15 0 29 -6 31 -12 2 -6 8 -9 13 -6 5 4 6 -1 3
-9 -4 -11 0 -13 14 -9 11 2 23 0 27 -7 9 -15 5 -18 -28 -24 -23 -4 -27 -1 -27
20 0 14 -6 24 -14 24 -13 0 -13 -4 0 -35 26 -63 9 -93 -21 -36 -11 23 -12 31
-2 34 6 3 2 6 -10 6 -21 1 -28 11 -24 35 1 5 -5 4 -13 -3 -19 -16 -35 -7 -33
19 1 21 40 29 51 11z m119 -98 c-4 -11 -3 -14 5 -9 7 4 12 1 12 -9 0 -14 -2
-14 -23 0 -13 8 -26 14 -28 13 -2 -2 2 3 10 10 21 17 32 15 24 -5z m-33 -38
c0 -8 -4 -15 -10 -15 -5 0 -7 7 -4 15 4 8 8 15 10 15 2 0 4 -7 4 -15z m-527
-52 c-7 -17 -21 -16 -38 1 -11 11 -9 13 14 12 18 -1 27 -5 24 -13z m-63 3 c0
-3 -4 -8 -10 -11 -5 -3 -10 -1 -10 4 0 6 5 11 10 11 6 0 10 -2 10 -4z m75 -26
c-3 -5 -14 -10 -23 -9 -14 0 -13 2 3 9 27 11 27 11 20 0z m875 -100 c-8 -5
-19 -10 -25 -10 -5 0 -3 5 5 10 8 5 20 10 25 10 6 0 3 -5 -5 -10z m20 -35 c0
-2 -10 -9 -22 -15 -22 -11 -22 -10 -4 4 21 17 26 19 26 11z m128 -176 c-3 -8
-7 -3 -11 10 -4 17 -3 21 5 13 5 -5 8 -16 6 -23z"/>
<path d="M3670 8120 c6 -11 13 -20 16 -20 2 0 0 9 -6 20 -6 11 -13 20 -16 20
-2 0 0 -9 6 -20z"/>
<path d="M3513 8408 c-2 -21 -1 -22 9 -4 8 15 12 16 20 5 8 -11 9 -11 5 1 -6
25 -33 23 -34 -2z"/>
<path d="M4210 8410 c-12 -7 -12 -12 -2 -22 6 -6 12 -10 13 -7 0 2 2 12 4 22
4 20 4 19 -15 7z"/>
<path d="M3610 8399 c0 -5 5 -7 10 -4 6 3 10 8 10 11 0 2 -4 4 -10 4 -5 0 -10
-5 -10 -11z"/>
<path d="M4215 8360 c3 -5 11 -10 16 -10 6 0 7 5 4 10 -3 6 -11 10 -16 10 -6
0 -7 -4 -4 -10z"/>
<path d="M3022 8349 c2 -7 10 -15 17 -17 8 -3 12 1 9 9 -2 7 -10 15 -17 17 -8
3 -12 -1 -9 -9z"/>
<path d="M2995 8331 c-3 -5 -2 -12 3 -15 5 -3 9 1 9 9 0 17 -3 19 -12 6z"/>
<path d="M4240 8319 c0 -5 9 -19 19 -31 18 -19 19 -19 16 -2 -2 11 -4 22 -4
25 -2 11 -31 19 -31 8z"/>
<path d="M3905 8240 c-3 -5 -1 -10 4 -10 6 0 11 5 11 10 0 6 -2 10 -4 10 -3 0
-8 -4 -11 -10z"/>
<path d="M3364 8214 c9 -8 13 -21 9 -27 -3 -7 -2 -8 3 -4 12 12 12 30 -1 39
-19 14 -27 8 -11 -8z"/>
<path d="M3890 8211 c0 -5 7 -15 17 -22 15 -13 15 -12 4 9 -12 23 -21 28 -21
13z"/>
<path d="M4265 8210 c-3 -5 -5 -10 -3 -11 29 -7 36 -5 31 7 -6 16 -19 18 -28
4z"/>
<path d="M4360 8200 c-8 -26 -7 -41 2 -32 6 6 8 16 5 24 -3 7 -6 11 -7 8z"/>
<path d="M4325 8158 c-5 -15 -2 -45 6 -52 3 -3 6 10 7 29 3 35 -5 47 -13 23z"/>
<path d="M4406 8148 c3 -5 10 -6 15 -3 13 9 11 12 -6 12 -8 0 -12 -4 -9 -9z"/>
<path d="M4413 8117 c-54 -33 -74 -57 -48 -57 8 0 15 7 15 16 0 8 5 12 10 9 6
-3 12 0 15 7 3 8 17 15 31 16 24 2 25 0 13 -16 -11 -14 -9 -13 9 2 23 20 30
32 12 21 -5 -3 -10 -1 -10 4 0 6 7 11 16 11 8 0 12 5 9 10 -9 14 -13 12 -72
-23z"/>
<path d="M4177 8103 c-10 -9 -9 -23 2 -23 5 0 11 7 15 15 5 15 -5 20 -17 8z"/>
<path d="M3240 7989 c0 -4 7 -9 15 -13 8 -3 15 -1 15 4 0 6 5 10 11 10 5 0 7
-4 4 -10 -3 -6 1 -7 9 -4 29 11 17 24 -19 21 -19 -1 -35 -5 -35 -8z"/>
<path d="M3150 7920 c0 -5 -7 -7 -15 -4 -8 4 -15 2 -15 -4 0 -14 33 -8 38 6 2
7 1 12 -2 12 -3 0 -6 -4 -6 -10z"/>
<path d="M3470 7916 c0 -23 16 -27 17 -5 1 10 -2 19 -8 19 -5 0 -9 -6 -9 -14z"/>
<path d="M3436 7881 c-10 -10 -14 -21 -9 -24 5 -3 13 6 20 19 13 29 11 30 -11
5z"/>
<path d="M6055 7890 c-19 -7 -19 -7 4 -19 26 -15 31 -12 22 10 -4 11 -12 14
-26 9z"/>
<path d="M5972 7850 c-50 -31 -80 -126 -43 -138 8 -3 11 0 7 6 -3 6 -2 13 3
16 13 8 104 -96 154 -176 23 -37 45 -67 50 -68 16 0 -72 127 -137 197 -55 59
-66 77 -55 84 8 5 17 9 22 9 4 0 7 7 7 15 0 18 20 57 35 67 22 17 -12 7 -43
-12z"/>
<path d="M3323 7837 c-3 -5 -3 -10 -1 -12 7 -7 48 7 48 16 0 10 -40 7 -47 -4z"/>
<path d="M3616 7802 c-3 -5 1 -9 9 -9 8 0 12 4 9 9 -3 4 -7 8 -9 8 -2 0 -6 -4
-9 -8z"/>
<path d="M3825 7800 c-43 -10 -102 -36 -109 -48 -9 -15 27 -25 39 -10 5 7 30
22 55 33 73 30 79 41 15 25z"/>
<path d="M3975 7789 c-4 -6 -12 -8 -19 -6 -7 3 -13 -4 -13 -14 -2 -26 12 -24
31 6 9 14 14 25 12 25 -3 0 -8 -5 -11 -11z"/>
<path d="M4166 7567 c3 -10 9 -15 12 -12 3 3 0 11 -7 18 -10 9 -11 8 -5 -6z"/>
<path d="M4121 7554 c0 -11 3 -14 6 -6 3 7 2 16 -1 19 -3 4 -6 -2 -5 -13z"/>
<path d="M4080 7534 c0 -9 5 -14 12 -12 18 6 21 28 4 28 -9 0 -16 -7 -16 -16z"/>
<path d="M6695 7488 c-11 -6 -35 -27 -52 -48 l-33 -37 45 -32 c25 -18 45 -29
45 -24 0 4 6 41 14 81 14 75 14 77 -19 60z"/>
<path d="M6590 7485 c0 -5 5 -17 10 -25 5 -8 10 -10 10 -5 0 6 -5 17 -10 25
-5 8 -10 11 -10 5z"/>
<path d="M6145 7450 c-3 -6 1 -7 9 -4 18 7 21 14 7 14 -6 0 -13 -4 -16 -10z"/>
<path d="M3898 7428 c-9 -5 -6 -8 9 -8 12 0 24 4 27 8 7 11 -19 11 -36 0z"/>
<path d="M6590 7419 c0 -5 5 -7 10 -4 6 3 10 8 10 11 0 2 -4 4 -10 4 -5 0 -10
-5 -10 -11z"/>
<path d="M6960 7222 c19 -12 171 -44 178 -37 7 7 -14 13 -88 25 -36 6 -74 13
-85 16 -16 4 -17 3 -5 -4z"/>
<path d="M6326 7098 c3 -5 10 -6 15 -3 13 9 11 12 -6 12 -8 0 -12 -4 -9 -9z"/>
<path d="M7675 6599 c-47 -66 -85 -123 -82 -125 2 -2 25 25 50 61 27 37 54 65
64 65 13 0 14 3 6 8 -10 6 -7 17 13 43 29 39 47 69 40 69 -2 0 -43 -54 -91
-121z"/>
<path d="M7872 6480 c-12 -12 -22 -24 -22 -27 0 -3 8 2 19 11 10 9 22 16 27
14 5 -2 10 1 12 7 6 18 -14 15 -36 -5z"/>
<path d="M7791 6399 c-24 -21 -41 -42 -38 -45 3 -3 18 7 34 23 15 16 36 32 46
36 17 6 25 27 10 27 -5 -1 -28 -19 -52 -41z"/>
<path d="M7720 6361 c0 -6 4 -13 10 -16 6 -3 7 1 4 9 -7 18 -14 21 -14 7z"/>
<path d="M2477 5943 c5 -13 2 -15 -15 -11 -12 4 -20 2 -16 -3 3 -5 1 -9 -4 -9
-5 0 -7 -22 -4 -50 6 -70 -11 -107 -57 -121 -21 -6 -41 -20 -47 -33 -6 -13
-17 -20 -29 -18 -14 2 -16 0 -7 -6 18 -12 24 -53 10 -71 -10 -13 -10 -14 1 -4
7 6 20 9 27 6 7 -3 21 2 29 11 9 9 27 16 41 16 13 0 24 5 24 11 0 5 4 8 9 5
12 -8 24 22 25 65 1 42 44 85 95 95 27 6 29 9 24 35 -3 16 -2 29 3 29 17 1 41
25 48 48 7 22 6 22 -78 22 -75 0 -85 -2 -79 -17z"/>
<path d="M2934 5949 c-7 -8 -8 -22 -4 -34 7 -18 9 -18 15 -3 4 9 5 25 3 34 -2
14 -5 15 -14 3z"/>
<path d="M2898 5902 c-3 -11 0 -19 7 -19 7 0 10 8 7 19 -2 10 -6 18 -7 18 -1
0 -5 -8 -7 -18z"/>
<path d="M2081 5664 c0 -11 3 -14 6 -6 3 7 2 16 -1 19 -3 4 -6 -2 -5 -13z"/>
<path d="M4702 5590 c20 -11 40 -24 43 -30 3 -5 13 -10 22 -10 19 0 -18 30
-60 48 -43 19 -46 13 -5 -8z"/>
<path d="M2145 5529 c-4 -6 -5 -12 -2 -15 2 -3 7 2 10 11 7 17 1 20 -8 4z"/>
<path d="M4650 5520 c0 -5 5 -10 11 -10 5 0 7 5 4 10 -3 6 -8 10 -11 10 -2 0
-4 -4 -4 -10z"/>
<path d="M4385 5420 c-3 -5 -1 -10 5 -10 6 0 8 -4 5 -10 -3 -6 1 -7 9 -4 9 3
16 12 16 20 0 16 -26 19 -35 4z"/>
<path d="M4430 5419 c0 -5 5 -7 10 -4 6 3 10 8 10 11 0 2 -4 4 -10 4 -5 0 -10
-5 -10 -11z"/>
<path d="M3795 5284 c-98 -27 -131 -35 -192 -50 -40 -10 -70 -21 -68 -24 3 -4
36 -5 75 -2 51 3 74 1 87 -9 11 -9 14 -10 9 -1 -4 6 -2 12 3 12 6 0 11 7 11
15 0 8 5 15 10 15 6 0 10 -4 10 -10 0 -5 9 -10 20 -10 11 0 20 -4 20 -10 0 -5
3 -9 8 -9 26 4 32 -2 22 -21 -12 -22 -1 -27 17 -9 7 7 8 20 3 33 -4 11 -8 24
-9 29 0 4 -1 8 -2 10 0 1 -2 10 -4 20 -4 22 -7 25 -20 21z"/>
<path d="M3862 5239 c3 -34 28 -54 28 -22 0 15 -2 16 -11 3 -8 -12 -9 -9 -5
12 3 15 1 30 -5 33 -7 5 -9 -4 -7 -26z"/>
<path d="M4895 5200 c-3 -5 -1 -10 4 -10 6 0 11 5 11 10 0 6 -2 10 -4 10 -3 0
-8 -4 -11 -10z"/>
<path d="M4767 5172 c-8 -9 -17 -26 -21 -37 -3 -11 -25 -33 -48 -48 -36 -23
-39 -27 -18 -25 17 2 24 -1 22 -11 -2 -9 4 -12 16 -9 32 9 65 -65 37 -84 -5
-4 -22 -8 -37 -8 -28 0 -42 -29 -15 -31 6 0 3 -4 -8 -9 -16 -7 -17 -9 -3 -9 9
-1 24 2 33 5 13 6 14 9 3 16 -9 6 -6 7 8 3 29 -8 74 45 74 86 0 17 5 40 11 52
9 19 8 19 -10 -3 l-19 -25 -7 28 c-4 15 -4 35 1 44 4 10 6 22 5 26 0 4 3 16 9
26 13 26 -13 36 -33 13z m0 -92 c-1 -11 -4 -20 -8 -20 -10 0 -19 27 -12 34 12
12 22 5 20 -14z"/>
<path d="M9931 5174 c0 -11 3 -14 6 -6 3 7 2 16 -1 19 -3 4 -6 -2 -5 -13z"/>
<path d="M3730 5146 c0 -2 9 -6 20 -9 11 -3 20 -1 20 4 0 5 -9 9 -20 9 -11 0
-20 -2 -20 -4z"/>
<path d="M10143 5108 c-15 -20 -25 -38 -20 -38 3 0 12 11 21 25 17 26 16 35
-1 13z"/>
<path d="M4790 5079 c0 -5 5 -7 10 -4 6 3 10 8 10 11 0 2 -4 4 -10 4 -5 0 -10
-5 -10 -11z"/>
<path d="M4865 5066 c-9 -14 -15 -31 -13 -38 3 -7 12 2 22 20 21 41 14 54 -9
18z"/>
<path d="M2900 5040 c-9 -6 -10 -10 -3 -10 6 0 15 5 18 10 8 12 4 12 -15 0z"/>
<path d="M4600 4910 c0 -5 5 -10 11 -10 5 0 7 5 4 10 -3 6 -8 10 -11 10 -2 0
-4 -4 -4 -10z"/>
<path d="M3095 4860 c4 -6 11 -8 16 -5 14 9 11 15 -7 15 -8 0 -12 -5 -9 -10z"/>
<path d="M3758 4853 c-19 -5 -24 -18 -10 -27 4 -2 13 4 20 15 7 10 11 18 10
18 -2 -1 -11 -3 -20 -6z"/>
<path d="M3104 4830 c-15 -11 -32 -29 -36 -41 -5 -13 -14 -19 -22 -16 -10 4
-14 0 -13 -11 1 -26 -32 -72 -49 -65 -14 5 -28 -21 -40 -75 -3 -18 1 -13 15
16 11 23 23 42 26 42 3 0 -1 -13 -10 -30 -8 -16 -15 -33 -15 -37 2 -26 -46
-124 -66 -138 -29 -19 -30 -32 -4 -40 19 -6 29 -26 13 -24 -23 4 -28 -5 -25
-46 3 -38 6 -44 18 -34 8 6 14 8 14 4 0 -4 6 -2 14 4 7 6 22 9 32 5 15 -4 14
-1 -6 16 -13 12 -25 29 -26 38 -2 9 -5 26 -8 38 -5 18 2 29 29 50 19 14 35 32
35 39 0 7 15 18 33 26 17 7 36 19 40 26 5 7 13 10 19 7 6 -4 15 0 20 7 7 11
11 11 15 2 7 -18 26 -16 19 2 -3 8 -2 15 3 15 18 0 59 -41 65 -65 4 -14 10
-25 15 -25 11 0 -11 -66 -27 -82 -12 -12 -17 0 -13 25 1 4 -9 2 -21 -5 -23
-12 -29 -15 -49 -17 -8 -1 -8 -5 1 -16 6 -8 9 -19 5 -25 -3 -5 -2 -10 4 -10 6
0 13 11 17 25 3 14 10 25 16 25 5 0 6 -9 3 -20 -5 -15 -2 -20 12 -20 15 0 16
2 3 10 -13 8 -13 10 1 10 9 0 23 -8 30 -17 10 -11 10 -14 2 -9 -7 4 -13 3 -13
-3 0 -6 9 -15 19 -21 16 -8 21 -6 25 8 3 9 4 5 2 -10 -4 -31 17 -44 38 -23 7
8 23 12 34 10 16 -3 22 3 28 28 4 22 38 65 108 137 101 105 129 123 140 94 5
-13 9 -14 20 -5 7 6 20 9 27 6 8 -2 25 5 39 16 14 11 18 17 10 13 -13 -7 -13
-5 -1 9 11 14 11 17 0 17 -9 0 -6 5 6 12 19 12 19 12 -5 18 -14 4 -33 3 -42
-2 -9 -4 -24 -5 -32 -2 -13 5 -13 10 -5 27 10 19 9 19 -12 -3 l-24 -25 -3 23
c-2 12 -8 22 -13 22 -10 0 -12 -10 -9 -58 2 -31 0 -33 -22 -26 -68 21 -118 31
-112 22 4 -6 -1 -8 -14 -4 -14 5 -25 0 -37 -16 -16 -23 -16 -22 -13 21 l3 45
-58 20 c-31 12 -57 26 -57 32 0 7 -12 15 -27 19 -21 5 -24 8 -12 16 12 7 11 9
-3 9 -9 0 -23 6 -31 14 -12 12 -18 12 -43 -4z m250 -232 c-10 -13 -20 -25 -21
-27 -2 -2 -3 8 -3 22 0 21 5 27 22 27 21 0 21 0 2 -22z m-155 -7 c12 -11 18
-22 13 -25 -6 -3 -17 5 -26 19 -20 30 -16 31 13 6z"/>
<path d="M3715 4790 c3 -5 12 -10 20 -10 8 0 17 5 20 10 4 6 -5 10 -20 10 -15
0 -24 -4 -20 -10z"/>
<path d="M4280 4736 c7 -7 13 -7 20 0 6 6 3 10 -10 10 -13 0 -16 -4 -10 -10z"/>
<path d="M3875 4690 c3 -5 8 -10 11 -10 2 0 4 5 4 10 0 6 -5 10 -11 10 -5 0
-7 -4 -4 -10z"/>
<path d="M3591 4556 c-8 -9 -7 -17 2 -30 12 -16 14 -16 26 -2 11 13 10 18 -2
30 -12 13 -17 13 -26 2z"/>
<path d="M2675 4550 c3 -5 8 -10 11 -10 2 0 4 5 4 10 0 6 -5 10 -11 10 -5 0
-7 -4 -4 -10z"/>
<path d="M3526 4493 c-6 -14 -5 -15 5 -6 7 7 10 15 7 18 -3 3 -9 -2 -12 -12z"/>
<path d="M2775 4368 c0 -21 3 -38 8 -38 4 0 7 5 7 11 0 5 5 7 10 4 6 -4 10 6
10 23 0 20 -6 31 -17 34 -15 4 -18 -2 -18 -34z"/>
<path d="M2777 4306 c-8 -21 3 -27 19 -11 18 17 18 25 0 25 -8 0 -16 -6 -19
-14z"/>
<path d="M3084 4285 c1 -8 6 -18 11 -22 4 -4 5 -3 2 4 -4 6 -2 13 5 15 8 3 6
6 -4 10 -10 4 -15 2 -14 -7z"/>
<path d="M2860 4190 c0 -5 5 -10 10 -10 6 0 10 -7 10 -15 0 -8 -5 -15 -11 -15
-5 0 -7 -4 -4 -10 10 -17 -15 -52 -33 -45 -9 3 -13 3 -10 -1 10 -10 -29 -47
-41 -39 -6 3 -11 0 -11 -8 0 -8 7 -18 16 -21 9 -4 14 -9 11 -13 -4 -3 0 -15 8
-27 8 -11 15 -36 16 -56 l1 -35 11 44 c7 24 21 50 33 58 18 12 25 10 58 -12
20 -14 41 -25 46 -25 6 0 10 -4 10 -8 0 -5 6 -15 13 -23 6 -8 11 -13 10 -11 0
2 3 18 8 35 8 27 5 35 -17 58 l-26 27 22 22 c12 12 28 19 35 16 19 -7 27 22 8
32 -11 6 -12 11 -4 16 18 11 13 26 -9 26 -10 0 -30 11 -44 25 -19 19 -35 25
-71 25 -25 0 -45 -4 -45 -10z"/>
<path d="M3116 4091 c-4 -6 -4 -16 0 -22 5 -8 1 -8 -14 0 -31 17 -35 13 -12
-11 11 -12 20 -31 20 -42 0 -25 17 -10 22 19 1 11 8 23 13 27 6 5 4 13 -6 24
-11 11 -19 12 -23 5z"/>
<path d="M3010 4061 c0 -5 5 -13 10 -16 6 -3 10 -2 10 4 0 5 -4 13 -10 16 -5
3 -10 2 -10 -4z"/>
<path d="M3825 4040 c-22 -23 -25 -30 -12 -30 18 0 57 34 57 50 0 18 -16 11
-45 -20z"/>
<path d="M3179 4020 c0 -3 -2 -13 -4 -22 -2 -10 1 -18 5 -18 15 0 19 15 9 30
-5 8 -9 13 -10 10z"/>
<path d="M3107 3976 c-3 -8 1 -22 9 -33 13 -17 14 -16 8 12 -8 37 -10 39 -17
21z"/>
<path d="M3771 3967 c-8 -10 -7 -14 4 -14 8 0 15 6 15 14 0 7 -2 13 -4 13 -2
0 -9 -6 -15 -13z"/>
<path d="M3280 3954 c0 -8 5 -12 10 -9 6 4 8 11 5 16 -9 14 -15 11 -15 -7z"/>
<path d="M3736 3931 c-4 -5 -2 -12 3 -15 5 -4 12 -2 15 3 4 5 2 12 -3 15 -5 4
-12 2 -15 -3z"/>
<path d="M2890 3915 c0 -8 5 -17 10 -20 6 -3 10 0 10 7 0 9 3 9 10 -2 8 -13
10 -13 10 1 0 9 -9 19 -20 22 -13 3 -20 0 -20 -8z"/>
<path d="M5222 3903 c2 -9 9 -18 16 -21 18 -6 15 25 -4 32 -11 4 -14 1 -12
-11z"/>
<path d="M5100 3815 c0 -8 2 -15 4 -15 2 0 6 7 10 15 3 8 1 15 -4 15 -6 0 -10
-7 -10 -15z"/>
<path d="M5030 3790 c-11 -7 -12 -12 -3 -21 7 -7 9 -24 6 -40 -4 -22 -2 -29
10 -29 17 0 22 66 5 76 -6 4 -5 10 3 15 8 5 10 9 4 9 -5 0 -17 -5 -25 -10z"/>
<path d="M4980 3736 c0 -28 16 -43 23 -24 4 10 6 10 6 0 1 -7 -7 -21 -16 -30
-16 -16 -16 -16 -10 1 3 9 2 17 -3 17 -19 0 -20 -21 -3 -47 11 -16 23 -37 29
-47 16 -30 32 -31 27 -1 -3 14 0 32 6 39 10 12 8 17 -7 25 -13 7 -18 18 -15
30 3 11 -4 28 -16 40 l-21 21 0 -24z m44 -89 c7 -6 6 -7 -4 -4 -8 2 -16 12
-17 23 -2 13 -1 15 4 4 3 -8 11 -19 17 -23z m-7 -39 c-3 -8 -6 -5 -6 6 -1 11
2 17 5 13 3 -3 4 -12 1 -19z"/>
<path d="M3383 3671 c0 -10 7 -18 14 -17 22 3 23 11 3 24 -16 10 -18 9 -17 -7z"/>
<path d="M5120 3624 c0 -8 5 -12 10 -9 6 4 8 11 5 16 -9 14 -15 11 -15 -7z"/>
<path d="M0 2990 c0 -319 3 -580 6 -580 4 0 51 27 105 61 l99 61 0 221 c0 196
28 587 55 780 l5 37 -135 0 -135 0 0 -580z"/>
<path d="M4765 3530 c4 -6 11 -8 16 -5 14 9 11 15 -7 15 -8 0 -12 -5 -9 -10z"/>
<path d="M4970 3509 c-19 -12 -37 -23 -39 -25 -3 -3 15 -25 40 -50 27 -28 36
-42 24 -38 -18 7 -18 6 -6 -9 7 -9 17 -17 21 -17 10 0 12 112 3 138 l-8 22
-35 -21z"/>
<path d="M4910 3460 c0 -5 5 -10 11 -10 5 0 7 5 4 10 -3 6 -8 10 -11 10 -2 0
-4 -4 -4 -10z"/>
<path d="M5037 3463 c-4 -3 -7 -11 -7 -17 0 -6 5 -5 12 2 6 6 9 14 7 17 -3 3
-9 2 -12 -2z"/>
<path d="M4740 3376 c0 -2 7 -7 16 -10 8 -3 12 -2 9 4 -6 10 -25 14 -25 6z"/>
<path d="M585 3235 c-7 -95 -7 -98 16 -116 13 -10 27 -19 31 -19 4 0 5 44 2
98 -5 73 -11 102 -24 116 -17 18 -18 15 -25 -79z"/>
<path d="M4546 3061 c-7 -11 1 -52 14 -65 12 -12 12 -9 1 32 -8 28 -7 32 9 32
20 0 44 -20 60 -50 7 -13 6 -20 -6 -24 -8 -3 -12 -11 -9 -16 10 -16 35 8 35
32 0 40 -86 89 -104 59z"/>
<path d="M4587 3016 c11 -14 22 -21 27 -16 11 11 -11 40 -31 40 -11 0 -10 -5
4 -24z"/>
<path d="M891 2753 c-7 -76 -15 -228 -18 -339 l-6 -201 -52 -31 c-29 -17 -58
-38 -65 -47 -10 -12 -40 -15 -160 -15 l-148 0 -183 -147 c-101 -80 -185 -147
-186 -148 -2 -1 -6 -39 -10 -86 -8 -82 -9 -84 -35 -87 l-28 -3 0 -825 0 -824
1779 0 1779 0 158 120 159 121 6 207 c9 302 8 801 -1 772 -4 -14 -8 -114 -9
-222 l-1 -197 -186 -126 c-103 -69 -193 -124 -200 -121 -15 6 -1532 1081
-1552 1100 -11 11 22 36 177 136 105 67 193 126 196 130 7 12 30 489 23 495
-2 3 -79 1 -171 -3 l-166 -7 159 -114 c105 -75 157 -118 150 -125 -5 -5 -92
-62 -192 -126 l-183 -117 -3 266 -2 266 -193 -3 c-165 -3 -196 -6 -217 -21
-20 -15 -53 -19 -177 -23 l-153 -6 -127 -79 -128 -80 -6 319 c-4 176 -9 321
-11 324 -3 2 -10 -58 -17 -133z"/>
<path d="M4118 2883 c7 -3 16 -2 19 1 4 3 -2 6 -13 5 -11 0 -14 -3 -6 -6z"/>
<path d="M4080 2856 c0 -2 8 -10 18 -17 15 -13 16 -12 3 4 -13 16 -21 21 -21
13z"/>
<path d="M4655 2790 c-3 -5 -1 -10 4 -10 6 0 11 5 11 10 0 6 -2 10 -4 10 -3 0
-8 -4 -11 -10z"/>
</g>
</svg>
