<?xml version="1.0" encoding="UTF-8" standalone="no"?>
<svg
   xmlns:dc="http://purl.org/dc/elements/1.1/"
   xmlns:cc="http://creativecommons.org/ns#"
   xmlns:rdf="http://www.w3.org/1999/02/22-rdf-syntax-ns#"
   xmlns:svg="http://www.w3.org/2000/svg"
   xmlns="http://www.w3.org/2000/svg"
   viewBox="0 0 1066.6667 1066.6667"
   height="1066.6667"
   width="1066.6667"
   xml:space="preserve"
   id="svg2"
   version="1.1"><metadata
     id="metadata8"><rdf:RDF><cc:Work
         rdf:about=""><dc:format>image/svg+xml</dc:format><dc:type
           rdf:resource="http://purl.org/dc/dcmitype/StillImage" /></cc:Work></rdf:RDF></metadata><defs
     id="defs6"><clipPath
       id="clipPath20"
       clipPathUnits="userSpaceOnUse"><path
         id="path18"
         d="m 298.9682,116.0732 h 32 v 402 h -32 z" /></clipPath><clipPath
       id="clipPath30"
       clipPathUnits="userSpaceOnUse"><path
         id="path28"
         d="M 468.0318,351.1756 H 800 v 332 H 468.0318 Z" /></clipPath><clipPath
       id="clipPath44"
       clipPathUnits="userSpaceOnUse"><path
         id="path42"
         d="m 583.0318,466.1756 h 102 v 102 h -102 z" /></clipPath><clipPath
       id="clipPath54"
       clipPathUnits="userSpaceOnUse"><path
         id="path52"
         d="m 0,351.1593 h 331.9682 v 332 H 0 Z" /></clipPath><clipPath
       id="clipPath68"
       clipPathUnits="userSpaceOnUse"><path
         id="path66"
         d="m 114.9682,466.1756 h 102 v 102 h -102 z" /></clipPath><clipPath
       id="clipPath78"
       clipPathUnits="userSpaceOnUse"><path
         id="path76"
         d="m 383.5,381.0589 h 32 v 302.2335 h -32 z" /></clipPath><clipPath
       id="clipPath88"
       clipPathUnits="userSpaceOnUse"><path
         id="path86"
         d="m 341.7341,530.9268 h 32 v 152 h -32 z" /></clipPath><clipPath
       id="clipPath98"
       clipPathUnits="userSpaceOnUse"><path
         id="path96"
         d="m 425.7659,531.9268 h 32 v 152 h -32 z" /></clipPath><clipPath
       id="clipPath108"
       clipPathUnits="userSpaceOnUse"><path
         id="path106"
         d="m 468.0318,116.0732 h 32 v 402 h -32 z" /></clipPath></defs><g
     transform="matrix(1.3333333,0,0,-1.3333333,0,1066.6667)"
     id="g10"><g
       id="g12" /><g
       id="g14"><g
         clip-path="url(#clipPath20)"
         id="g16"><path
           id="path22"
           style="fill:#d5d5d5;fill-opacity:1;fill-rule:nonzero;stroke:none"
           d="m 299.9682,117.0732 h 30 v 400 h -30 z" /></g></g><g
       id="g24"><g
         clip-path="url(#clipPath30)"
         id="g26"><path
           id="path32"
           style="fill:#ffffff;fill-opacity:1;fill-rule:nonzero;stroke:none"
           d="m 740.0978,623.2417 c 58.5787,-58.5787 58.5787,-153.5534 0,-212.1321 -58.5786,-58.5786 -153.5533,-58.5786 -212.132,0 -58.5786,58.5787 -58.5786,153.5534 0,212.1321 58.5787,58.5786 153.5534,58.5786 212.132,0 z" /><g
           transform="matrix(1,0,0,-1,484.0318,667.1756)"
           id="g34"><path
             id="path36"
             style="fill:none;stroke:#000000;stroke-width:30;stroke-linecap:butt;stroke-linejoin:miter;stroke-miterlimit:4;stroke-dasharray:none;stroke-opacity:1"
             d="m 256.066,43.93398 c 58.5787,58.57862 58.5787,153.55342 0,212.13202 -58.5786,58.5787 -153.5534,58.5787 -212.13202,0 -58.57864,-58.5786 -58.57864,-153.5534 0,-212.13202 58.57862,-58.57864 153.55342,-58.57864 212.13202,0 z" /></g></g></g><g
       id="g38"><g
         clip-path="url(#clipPath44)"
         id="g40"><path
           id="path46"
           style="fill:#000000;fill-opacity:1;fill-rule:nonzero;stroke:none"
           d="m 669.3871,552.531 c 19.5263,-19.5262 19.5263,-51.1845 0,-70.7107 -19.5262,-19.5262 -51.1844,-19.5262 -70.7106,0 -19.5263,19.5262 -19.5263,51.1845 0,70.7107 19.5262,19.5262 51.1844,19.5262 70.7106,0 z" /></g></g><g
       id="g48"><g
         clip-path="url(#clipPath54)"
         id="g50"><path
           id="path56"
           style="fill:#ffffff;fill-opacity:1;fill-rule:nonzero;stroke:none"
           d="m 272.0342,623.2253 c 58.5786,-58.5787 58.5786,-153.5534 0,-212.1321 -58.5787,-58.5786 -153.5534,-58.5786 -212.13204,0 -58.578648,58.5787 -58.578648,153.5534 0,212.1321 58.57864,58.5786 153.55334,58.5786 212.13204,0 z" /><g
           transform="matrix(1,0,0,-1,15.96817,667.1593)"
           id="g58"><path
             id="path60"
             style="fill:none;stroke:#000000;stroke-width:30;stroke-linecap:butt;stroke-linejoin:miter;stroke-miterlimit:4;stroke-dasharray:none;stroke-opacity:1"
             d="m 256.066,43.93398 c 58.5787,58.57862 58.5787,153.55342 0,212.13202 -58.5786,58.5787 -153.5534,58.5787 -212.13202,0 -58.57864,-58.5786 -58.57864,-153.5534 0,-212.13202 58.57862,-58.57864 153.55342,-58.57864 212.13202,0 z" /></g></g></g><g
       id="g62"><g
         clip-path="url(#clipPath68)"
         id="g64"><path
           id="path70"
           style="fill:#000000;fill-opacity:1;fill-rule:nonzero;stroke:none"
           d="m 201.3235,552.531 c 19.5262,-19.5262 19.5262,-51.1845 0,-70.7107 -19.5262,-19.5262 -51.1844,-19.5262 -70.7107,0 -19.5262,19.5262 -19.5262,51.1845 0,70.7107 19.5263,19.5262 51.1845,19.5262 70.7107,0 z" /></g></g><g
       id="g72"><g
         clip-path="url(#clipPath78)"
         id="g74"><path
           id="path80"
           style="fill:#000000;fill-opacity:1;fill-rule:nonzero;stroke:none"
           d="m 384.5,382.0589 h 30 v 300.2335 h -30 z" /></g></g><g
       id="g82"><g
         clip-path="url(#clipPath88)"
         id="g84"><path
           id="path90"
           style="fill:#000000;fill-opacity:1;fill-rule:nonzero;stroke:none"
           d="m 342.7341,531.9268 h 30 v 150 h -30 z" /></g></g><g
       id="g92"><g
         clip-path="url(#clipPath98)"
         id="g94"><path
           id="path100"
           style="fill:#000000;fill-opacity:1;fill-rule:nonzero;stroke:none"
           d="m 426.7659,532.9268 h 30 v 150 h -30 z" /></g></g><g
       id="g102"><g
         clip-path="url(#clipPath108)"
         id="g104"><path
           id="path110"
           style="fill:#000000;fill-opacity:1;fill-rule:nonzero;stroke:none"
           d="m 469.0318,117.0732 h 30 v 400 h -30 z" /></g></g></g></svg>