<svg xmlns="http://www.w3.org/2000/svg" version="1.1" xmlns:xlink="http://www.w3.org/1999/xlink" xmlns:svgjs="http://svgjs.com/svgjs" width="1281.8826" height="1120.8455"><svg xmlns:dc="http://purl.org/dc/elements/1.1/" xmlns:cc="http://creativecommons.org/ns#" xmlns:rdf="http://www.w3.org/1999/02/22-rdf-syntax-ns#" xmlns:svg="http://www.w3.org/2000/svg" xmlns="http://www.w3.org/2000/svg" viewBox="0 0 1281.8826 1120.8455" height="1120.8455" width="1281.8826" xml:space="preserve" id="SvgjsSvg1026" version="1.1"><metadata id="SvgjsMetadata1025"><rdf:rdf><cc:work rdf:about=""><dc:format>image/svg+xml</dc:format><dc:type rdf:resource="http://purl.org/dc/dcmitype/StillImage"></dc:type></cc:work></rdf:rdf></metadata><defs id="SvgjsDefs1024"><clipPath id="SvgjsClipPath1023" clipPathUnits="userSpaceOnUse"><path id="SvgjsPath1022" d="M 0,0 H 1920 V 1080 H 0 Z"></path></clipPath><clipPath id="SvgjsClipPath1021" clipPathUnits="userSpaceOnUse"><path id="SvgjsPath1020" d="M 0,0 H 1920 V 1080 H 0 Z"></path></clipPath></defs><g clip-path="url(#clipPath14)" transform="matrix(1.3333333,0,0,-1.3333333,-119.01341,1440)" id="SvgjsG1019"><g id="SvgjsG1018"></g><g id="SvgjsG1017"><g clip-path="url(#clipPath24)" id="SvgjsG1016"><path id="SvgjsPath1015" style="fill:#ffffff;fill-opacity:1;fill-rule:nonzero;stroke:none" d="M 0,0 H 1920 V 1080 H 0 Z"></path><path id="SvgjsPath1014" style="fill:#d5d5d5;fill-opacity:1;fill-rule:nonzero;stroke:none" d="m 393.392,368.7469 h 30 v 350 h -30 z"></path><path id="SvgjsPath1013" style="fill:#ffffff;fill-opacity:1;fill-rule:nonzero;stroke:none" d="m 987.5216,815.8293 c 58.5784,-58.5786 58.5784,-153.5534 0,-212.132 -58.5786,-58.5787 -153.5534,-58.5787 -212.132,0 -58.5786,58.5786 -58.5786,153.5534 0,212.132 58.5786,58.5787 153.5534,58.5787 212.132,0 z"></path><g transform="matrix(1,0,0,-1,731.4556,859.7633)" id="SvgjsG1012"><path id="SvgjsPath1011" style="fill:none;stroke:#000000;stroke-width:30;stroke-linecap:butt;stroke-linejoin:miter;stroke-miterlimit:4;stroke-dasharray:none;stroke-opacity:1" d="m 256.066,43.93398 c 58.5787,58.57862 58.5787,153.55342 0,212.13202 -58.5786,58.5787 -153.5534,58.5787 -212.13202,0 -58.57864,-58.5786 -58.57864,-153.5534 0,-212.13202 58.57862,-58.57864 153.55342,-58.57864 212.13202,0 z"></path></g><path id="SvgjsPath1010" style="fill:#000000;fill-opacity:1;fill-rule:nonzero;stroke:none" d="m 916.811,745.1186 c 19.5262,-19.5262 19.5262,-51.1844 0,-70.7106 -19.5263,-19.5263 -51.1845,-19.5263 -70.7107,0 -19.5262,19.5262 -19.5262,51.1844 0,70.7106 19.5262,19.5262 51.1844,19.5262 70.7107,0 z"></path><path id="SvgjsPath1009" style="fill:#000000;fill-opacity:1;fill-rule:nonzero;stroke:none" d="m 630.0641,476.2134 h 30 v 400 h -30 z"></path><path id="SvgjsPath1008" style="fill:#ffffff;fill-opacity:1;fill-rule:nonzero;stroke:none" d="m 364.458,824.8129 c 58.5786,-58.5786 58.5786,-153.5533 0,-212.132 -58.5786,-58.5786 -153.5534,-58.5786 -212.132,0 -58.57867,58.5787 -58.57867,153.5534 0,212.132 58.5786,58.5787 153.5534,58.5787 212.132,0 z"></path><g transform="matrix(1,0,0,-1,108.392,868.7469)" id="SvgjsG1007"><path id="SvgjsPath1006" style="fill:none;stroke:#000000;stroke-width:30;stroke-linecap:butt;stroke-linejoin:miter;stroke-miterlimit:4;stroke-dasharray:none;stroke-opacity:1" d="m 256.066,43.93398 c 58.5787,58.57862 58.5787,153.55342 0,212.13202 -58.5786,58.5787 -153.5534,58.5787 -212.13202,0 -58.57864,-58.5786 -58.57864,-153.5534 0,-212.13202 58.57862,-58.57864 153.55342,-58.57864 212.13202,0 z"></path></g><path id="SvgjsPath1005" style="fill:#000000;fill-opacity:1;fill-rule:nonzero;stroke:none" d="m 293.7473,754.1023 c 19.5262,-19.5263 19.5262,-51.1845 0,-70.7107 -19.5262,-19.5262 -51.1844,-19.5262 -70.7107,0 -19.5262,19.5262 -19.5262,51.1844 0,70.7107 19.5263,19.5262 51.1845,19.5262 70.7107,0 z"></path><path id="SvgjsPath1004" style="fill:#000000;fill-opacity:1;fill-rule:nonzero;stroke:none" d="m 552.6736,576.2134 h 30 v 300 h -30 z"></path><path id="SvgjsPath1003" style="fill:#000000;fill-opacity:1;fill-rule:nonzero;stroke:none" d="m 470.7825,476.2134 h 30 v 400 h -30 z"></path><path id="SvgjsPath1002" style="fill:#000000;fill-opacity:1;fill-rule:nonzero;stroke:none" d="m 511.7281,726.2134 h 30 v 150 h -30 z"></path><path id="SvgjsPath1001" style="fill:#000000;fill-opacity:1;fill-rule:nonzero;stroke:none" d="m 593.6191,726.2134 h 30 v 150 h -30 z"></path><path id="SvgjsPath1000" style="fill:#000000;fill-opacity:1;fill-rule:nonzero;stroke:none" d="m 716.4556,368.7469 h 30 v 350 h -30 z"></path></g></g></g></svg><style>@media (prefers-color-scheme: light) { :root { filter: none; } }
</style></svg>